<?xml version="1.0" standalone="no"?>
<!DOCTYPE svg PUBLIC "-//W3C//DTD SVG 20010904//EN"
 "http://www.w3.org/TR/2001/REC-SVG-20010904/DTD/svg10.dtd">
<svg version="1.0" xmlns="http://www.w3.org/2000/svg"
 width="1360.000000pt" height="1360.000000pt" viewBox="0 0 1360.000000 1360.000000"
 preserveAspectRatio="xMidYMid meet">
<metadata>
Created by potrace 1.14, written by Peter Selinger 2001-2017
</metadata>
<g transform="translate(0.000000,1360.000000) scale(0.100000,-0.100000)"
fill="#000000" stroke="none">
<path d="M10940 13593 c-8 -3 -31 -19 -50 -35 -19 -16 -39 -32 -45 -36 -62
-47 -373 -298 -381 -308 -6 -8 -15 -14 -20 -14 -5 0 -17 -8 -26 -17 -9 -10
-23 -23 -30 -28 -54 -42 -155 -122 -166 -133 -8 -7 -30 -25 -50 -40 -21 -15
-42 -31 -48 -37 -6 -5 -28 -23 -49 -40 -91 -71 -250 -199 -255 -204 -4 -5 -48
-40 -108 -86 -8 -5 -24 -19 -36 -30 -12 -11 -56 -46 -97 -77 -41 -31 -89 -70
-108 -87 -19 -17 -37 -31 -40 -31 -3 0 -26 -18 -50 -40 -25 -22 -47 -40 -50
-40 -3 0 -22 -15 -41 -33 -20 -17 -70 -58 -111 -90 -42 -31 -91 -70 -110 -87
-19 -16 -39 -34 -46 -40 -7 -5 -15 -10 -18 -10 -4 0 -20 -13 -37 -30 -16 -16
-33 -30 -36 -30 -4 -1 -29 -21 -57 -45 l-50 -44 25 -9 c14 -6 138 -65 276
-133 l251 -124 -23 -50 c-85 -185 -103 -226 -104 -233 -1 -4 -10 -23 -20 -42
-11 -19 -34 -69 -53 -110 -39 -85 -77 -168 -117 -255 -61 -130 -110 -237 -110
-240 0 -2 -26 -56 -57 -121 -31 -66 -57 -121 -58 -124 -2 -8 -28 -66 -71 -155
-21 -44 -38 -82 -39 -85 0 -3 -13 -30 -27 -60 -14 -30 -53 -113 -86 -185 -32
-71 -74 -161 -93 -200 -18 -38 -33 -72 -34 -75 -1 -3 -17 -39 -37 -80 -19 -41
-48 -104 -64 -140 -15 -36 -32 -66 -36 -68 -4 -2 -8 -9 -8 -16 0 -7 -6 -26
-14 -42 -49 -102 -126 -275 -126 -283 0 -6 -4 -11 -10 -11 -5 0 -10 -9 -10
-20 0 -11 -4 -20 -10 -20 -5 0 -9 -3 -8 -7 4 -14 -14 -57 -36 -88 -11 -16 -19
-31 -18 -33 2 -1 -5 -22 -16 -45 -11 -23 -28 -60 -38 -82 -10 -22 -25 -51 -33
-64 -8 -13 -16 -29 -17 -35 -1 -7 -12 -34 -25 -61 -13 -28 -24 -52 -24 -55 -1
-3 -12 -27 -25 -55 -13 -27 -24 -52 -25 -55 0 -3 -7 -16 -14 -29 -20 -35 -6
-102 27 -134 15 -14 50 -35 77 -47 84 -38 147 -66 210 -95 33 -15 78 -35 100
-45 22 -9 60 -27 85 -38 164 -75 200 -90 200 -84 0 4 4 2 8 -3 4 -6 76 -41
159 -79 228 -102 255 -97 338 70 28 54 52 104 54 109 36 87 25 83 130 55 89
-24 115 -25 131 -5 7 8 9 15 4 15 -4 0 -3 5 4 12 13 13 15 53 5 111 -5 31 -10
37 -26 35 -15 -2 -25 -16 -36 -50 l-14 -46 -58 0 c-80 1 -83 5 -54 64 23 46
106 223 110 234 7 20 31 73 64 144 22 46 56 119 76 162 l36 79 19 -43 c19 -41
42 -54 56 -30 10 15 26 87 26 116 0 13 10 30 24 39 19 12 24 24 24 58 0 23 -6
60 -14 82 -14 40 -13 42 29 131 42 88 45 91 87 102 97 25 208 70 225 92 13 17
25 139 15 155 -12 19 -51 21 -107 7 -27 -8 -51 -14 -52 -14 -9 0 3 31 52 135
30 64 55 118 55 120 0 1 18 41 40 88 22 46 40 89 40 96 0 6 4 11 8 11 4 0 14
16 21 35 13 38 26 43 50 21 9 -8 23 -16 31 -18 8 -2 21 -9 28 -15 23 -21 85
-11 88 14 3 26 19 43 40 43 21 0 23 3 15 19 -8 14 -4 29 19 65 17 26 30 51 30
55 0 7 -135 79 -162 86 -5 2 -10 3 -13 4 -2 0 6 22 19 49 25 49 82 172 130
278 27 59 29 61 60 54 57 -12 166 44 198 103 8 16 6 18 -19 13 -15 -3 -38 -8
-50 -11 -16 -5 -25 -1 -35 14 -7 12 -23 21 -35 21 -13 0 -23 3 -23 6 0 3 14
36 31 72 43 93 52 116 51 125 -1 4 2 7 8 7 5 0 10 6 10 14 0 8 4 17 9 20 5 3
85 -31 177 -76 93 -45 171 -82 174 -83 3 -1 49 -22 102 -48 54 -26 101 -47
105 -46 5 0 7 13 6 27 -3 63 -15 562 -16 729 -1 101 -4 183 -7 183 -3 0 -5 79
-5 175 0 96 -2 175 -5 175 -3 0 -6 69 -6 153 -1 83 -5 274 -9 422 -4 149 -8
343 -9 432 0 90 -3 163 -6 163 -3 0 -5 51 -5 113 1 111 -14 177 -39 177 -6 0
-20 2 -31 5 -11 2 -27 1 -35 -2z"/>
<path d="M9711 8893 c-1 -27 -7 -45 -17 -51 -16 -9 -57 -136 -46 -146 11 -12
39 -5 56 13 16 18 34 74 40 128 2 12 -5 39 -15 60 l-17 38 -1 -42z"/>
<path d="M7007 8193 c-1 0 -51 -4 -110 -8 -59 -3 -118 -8 -130 -11 -12 -2 -44
-6 -72 -10 -27 -3 -93 -14 -145 -25 -52 -11 -106 -22 -120 -25 -14 -2 -47 -12
-73 -20 -26 -9 -53 -17 -60 -18 -85 -16 -406 -146 -415 -168 -2 -5 -10 -8 -17
-8 -15 0 -160 -93 -214 -137 -94 -77 -132 -112 -204 -186 -85 -88 -178 -219
-219 -307 -44 -94 -70 -154 -73 -165 -1 -5 -7 -30 -14 -55 -8 -25 -15 -52 -16
-60 -2 -8 -4 -15 -5 -15 -2 0 -5 -15 -14 -65 -19 -103 -25 -282 -13 -405 3
-33 7 -60 7 -60 1 0 3 -13 5 -30 2 -16 7 -41 11 -55 3 -14 8 -34 10 -45 15
-80 128 -370 154 -395 3 -3 14 -22 25 -43 11 -21 28 -47 38 -58 10 -10 14 -19
10 -19 -4 0 -3 -4 2 -8 6 -4 29 -32 51 -62 130 -175 342 -346 554 -447 323
-154 377 -179 541 -245 l57 -23 -22 -45 c-12 -25 -52 -112 -90 -195 -65 -142
-113 -244 -176 -380 -78 -165 -119 -255 -140 -302 -23 -51 -39 -67 -41 -40 -1
6 -3 26 -5 42 -3 17 -6 60 -7 97 -1 38 -5 68 -9 68 -4 0 -5 6 -3 13 4 10 -79
12 -399 12 l-405 0 -27 60 c-47 102 -102 221 -145 313 -49 104 -72 155 -74
162 0 3 -29 63 -63 134 -34 71 -62 130 -62 133 0 3 -42 93 -116 248 -16 33
-29 62 -29 65 0 3 -18 40 -38 83 -21 42 -49 103 -63 135 -30 65 -84 180 -123
262 -14 30 -26 57 -27 60 0 3 -20 46 -43 95 -43 90 -75 158 -131 280 -16 36
-44 95 -62 133 -17 37 -32 69 -33 72 -1 3 -15 34 -32 70 -41 86 -94 202 -126
270 -33 72 -85 184 -137 295 -23 50 -69 149 -102 220 -33 72 -75 162 -93 200
-36 77 -84 183 -86 189 -1 3 -18 38 -38 78 l-37 73 -539 1 c-297 0 -543 -1
-547 -3 -4 -2 -3 -12 2 -21 9 -16 64 -134 120 -257 12 -27 40 -88 62 -135 72
-155 95 -204 123 -265 113 -245 148 -320 211 -454 30 -62 54 -115 54 -116 0
-2 17 -41 39 -87 21 -46 54 -117 74 -158 19 -41 48 -104 65 -140 61 -131 106
-228 162 -350 32 -69 71 -154 88 -190 16 -36 42 -92 57 -125 52 -115 77 -170
86 -185 5 -8 12 -22 16 -30 3 -8 28 -62 54 -119 27 -57 49 -105 49 -106 0 -2
23 -52 51 -112 71 -151 102 -217 104 -223 0 -3 13 -30 27 -60 42 -89 108 -232
130 -280 11 -25 43 -92 69 -149 27 -57 49 -105 49 -107 0 -1 24 -54 54 -116
29 -62 66 -140 81 -173 15 -33 41 -87 57 -120 16 -33 29 -61 29 -62 0 -2 22
-51 49 -109 28 -59 50 -108 50 -109 0 -2 25 -55 55 -120 30 -64 55 -120 55
-126 0 -5 4 -9 8 -9 5 0 9 -6 9 -12 0 -7 26 -67 58 -133 62 -130 98 -207 100
-215 0 -3 15 -34 32 -70 17 -36 42 -90 56 -120 14 -30 41 -89 60 -130 19 -41
50 -109 69 -150 19 -41 47 -100 62 -131 14 -31 26 -61 26 -67 0 -7 5 -12 10
-12 6 0 10 -6 10 -14 0 -13 6 -27 61 -138 l24 -48 242 0 c134 0 246 0 250 -1
3 0 17 19 30 43 30 56 161 334 168 358 1 3 18 41 39 85 21 44 47 99 57 123 10
23 21 42 23 42 3 0 38 -13 78 -29 134 -52 312 -107 413 -127 11 -2 31 -6 45
-9 110 -22 195 -34 265 -39 23 -1 45 -4 50 -7 6 -3 29 -4 53 -4 23 0 42 -1 42
-4 0 -4 -41 -72 -53 -86 -23 -29 -147 -207 -147 -212 0 -4 -6 -14 -14 -22 -21
-25 -46 -101 -50 -150 -4 -50 7 -106 31 -159 9 -21 16 -40 15 -43 -1 -4 20
-27 47 -52 49 -46 148 -102 194 -111 14 -2 34 -9 46 -15 11 -6 33 -13 48 -16
15 -2 60 -10 98 -18 39 -8 93 -17 120 -21 28 -3 84 -11 125 -17 41 -5 91 -12
110 -14 42 -4 195 -31 195 -35 0 -1 11 -3 25 -5 88 -12 286 -75 389 -124 68
-32 85 -105 50 -217 -20 -63 -22 -67 -31 -44 -5 14 -11 34 -13 45 -3 24 -33
95 -40 95 -2 0 -2 -7 1 -15 4 -9 0 -15 -10 -15 -17 0 -21 -20 -8 -36 5 -5 15
-25 22 -44 7 -19 20 -43 28 -52 13 -16 13 -21 -1 -49 -27 -56 0 -113 47 -101
32 8 66 33 66 48 0 8 3 14 8 14 4 0 13 14 21 31 7 17 40 61 72 97 32 36 57 68
55 70 -3 2 4 24 15 49 14 33 16 49 9 58 -12 14 -56 11 -76 -6 -16 -13 -25 2
-31 48 -19 139 -153 236 -413 298 -52 13 -115 26 -140 29 -25 3 -58 8 -75 11
-33 6 -87 13 -150 19 -121 14 -151 17 -165 21 -8 3 -33 7 -55 11 -72 10 -79
12 -183 38 -336 86 -385 160 -245 374 20 31 46 69 57 83 12 14 28 36 36 49 8
12 27 38 42 57 15 19 30 43 33 54 4 10 10 19 14 19 5 0 14 14 21 30 l12 30
152 1 c83 0 169 2 191 4 79 6 161 15 185 20 14 3 45 8 70 11 25 3 48 8 52 11
8 4 25 8 80 18 15 3 40 10 55 16 15 6 28 9 28 8 0 -4 188 59 240 81 82 34 255
123 330 168 196 118 367 287 467 462 58 101 68 121 68 134 0 8 3 16 8 18 12 5
53 125 78 229 28 116 40 228 38 369 -2 139 -10 224 -33 330 -6 25 -13 59 -16
75 -4 17 -10 39 -15 50 -4 11 -16 43 -25 70 -58 167 -174 358 -300 494 -43 46
-233 204 -320 266 -15 11 -42 30 -58 43 -17 12 -36 22 -43 22 -7 0 -14 4 -16
8 -4 10 -94 72 -103 72 -4 0 -26 12 -49 28 -23 15 -91 52 -151 82 -61 30 -111
58 -113 63 -2 4 -10 7 -17 7 -26 0 -26 20 -2 73 79 167 146 315 147 325 1 4
10 23 20 42 18 32 71 148 74 160 1 3 9 21 18 40 9 19 35 74 56 122 l40 86 438
1 c242 0 448 0 459 1 19 0 20 6 18 73 -10 287 -98 579 -246 809 -74 117 -244
296 -360 381 -33 23 -71 52 -85 64 -15 13 -32 23 -39 23 -6 0 -13 3 -15 8 -8
17 -247 137 -323 162 -22 7 -44 16 -50 20 -8 6 -105 38 -140 46 -5 2 -35 10
-65 19 -30 9 -66 18 -80 21 -14 3 -33 7 -42 10 -21 6 -54 13 -93 19 -16 2 -43
7 -60 10 -16 4 -52 8 -80 10 -27 2 -50 4 -50 5 0 6 -412 19 -418 13z m273
-897 c66 -8 189 -40 247 -64 50 -20 50 -15 -10 -142 -68 -147 -80 -175 -79
-182 1 -5 -2 -8 -8 -8 -5 0 -10 -4 -10 -9 0 -9 -27 -70 -103 -231 -11 -25 -22
-47 -22 -50 -1 -3 -14 -32 -29 -65 -15 -33 -33 -72 -39 -87 -7 -16 -15 -28
-19 -28 -5 0 -8 -6 -8 -14 0 -7 -20 -57 -45 -109 -25 -53 -45 -101 -45 -107 0
-5 -4 -10 -9 -10 -7 0 -14 -16 -26 -60 0 -3 -15 -33 -33 -67 -18 -34 -32 -69
-32 -77 0 -26 -27 -24 -108 9 -92 37 -314 148 -354 176 -14 11 -29 19 -33 19
-13 0 -91 58 -133 99 -137 134 -186 320 -138 530 10 42 65 152 98 194 67 86
129 133 248 190 61 28 187 73 197 69 2 0 17 4 35 9 18 5 67 12 108 16 41 3 76
6 77 7 6 4 226 -2 273 -8z m684 -498 c15 -40 29 -86 31 -103 2 -16 4 -30 5
-30 3 0 8 -51 11 -107 2 -54 4 -58 26 -58 22 0 23 -1 9 -16 -9 -8 -16 -21 -16
-28 0 -7 -6 -26 -14 -42 -13 -27 -63 -134 -106 -229 -10 -22 -40 -87 -65 -145
-26 -58 -56 -125 -68 -150 -11 -25 -20 -48 -19 -52 1 -3 -5 -12 -13 -18 -8 -7
-15 -18 -15 -26 0 -7 -5 -25 -12 -39 -13 -28 -29 -28 -93 0 -24 10 -106 39
-173 60 -9 3 -10 10 -3 22 9 17 42 87 104 223 14 30 42 91 62 135 36 76 68
147 121 262 13 28 24 55 24 59 0 4 6 15 13 23 8 9 20 32 27 51 7 19 35 80 62
136 26 55 48 105 48 110 0 8 20 34 26 34 1 0 14 -33 28 -72z m-816 -1979 c67
-22 121 -44 119 -47 -7 -14 -56 -119 -85 -182 -16 -36 -43 -95 -61 -133 -17
-37 -32 -71 -33 -75 -1 -4 -18 -38 -37 -77 -19 -38 -35 -72 -36 -75 -5 -15
-26 -62 -140 -305 -16 -33 -29 -62 -30 -65 0 -3 -19 -43 -42 -90 -59 -122 -86
-185 -82 -186 2 -1 -3 -10 -12 -20 -17 -19 -35 -63 -31 -76 1 -5 -3 -8 -8 -8
-6 0 -10 -6 -10 -14 0 -18 -26 -40 -34 -28 -3 6 -18 13 -33 17 -38 9 -106 41
-157 73 l-43 28 25 54 c13 30 35 76 49 103 13 26 21 47 16 47 -4 0 -3 4 2 8
11 8 30 45 68 132 26 59 69 152 122 265 18 39 44 95 58 125 14 30 44 96 67
145 80 171 135 290 178 387 10 21 24 38 32 38 8 0 70 -18 138 -41z m421 -180
c75 -39 138 -75 141 -79 3 -4 16 -11 29 -15 29 -9 152 -129 174 -171 57 -103
104 -253 85 -265 -7 -4 -7 -9 0 -13 17 -10 7 -235 -13 -286 -9 -25 -18 -50
-19 -55 -5 -30 -70 -127 -114 -172 -49 -48 -129 -103 -157 -107 -7 -1 -19 -7
-26 -12 -31 -24 -219 -80 -309 -92 -124 -16 -550 4 -550 26 0 4 18 45 41 92
23 47 51 105 62 130 12 25 26 48 30 51 5 3 8 8 7 10 -2 6 19 59 48 119 14 30
25 58 24 63 -1 4 3 7 8 7 6 0 10 4 10 10 0 9 25 66 88 200 14 30 27 57 27 60
1 3 23 50 49 105 27 55 56 118 66 140 16 37 49 108 121 263 16 34 32 62 36 62
3 0 67 -32 142 -71z"/>
<path d="M7960 993 c-25 -14 -49 -26 -55 -28 -42 -12 -54 -20 -65 -40 -16 -30
-7 -55 19 -55 21 0 220 91 221 101 0 3 -6 13 -12 22 -22 27 -59 27 -108 0z"/>
<path d="M8366 986 c10 -34 19 -38 98 -43 76 -5 76 -5 76 20 0 35 -11 40 -102
43 -76 2 -78 1 -72 -20z"/>
<path d="M7973 731 c-29 -10 -54 -17 -56 -15 -1 2 -11 -9 -22 -23 -11 -14 -43
-49 -72 -77 -52 -52 -70 -89 -60 -126 3 -11 2 -20 -1 -20 -13 0 -3 -115 16
-190 37 -143 71 -192 165 -236 79 -36 149 -26 200 27 34 36 36 58 14 144 -9
32 -68 115 -82 115 -3 0 -12 6 -19 12 -7 7 -32 30 -55 51 -22 21 -41 43 -42
50 -8 103 -3 155 20 197 13 25 28 51 34 58 10 12 21 53 14 52 -1 -1 -26 -9
-54 -19z m-66 -423 c2 -17 0 -19 -7 -8 -5 8 -6 18 -4 22 8 12 10 10 11 -14z
m91 -103 c12 -2 35 -18 52 -35 25 -25 29 -35 19 -46 -20 -25 -45 -15 -75 29
-16 23 -35 48 -42 55 -6 8 -17 23 -23 35 -10 19 -7 18 18 -6 16 -15 39 -29 51
-32z"/>
</g>
</svg>
