<svg width="181" height="41" viewBox="0 0 181 41" fill="none" xmlns="http://www.w3.org/2000/svg">
<g filter="url(#filter0_d_193_1604)">
<rect x="4" y="2" width="173" height="33" rx="16.5" fill="white"/>
<rect x="4.5" y="2.5" width="172" height="32" rx="16" stroke="url(#paint0_linear_193_1604)"/>
</g>
<path d="M55.833 12.1636V23.8H53.4012V14.1636H48.6966V23.8H46.2648V12.1636H55.833ZM62.0731 23.9704C61.1905 23.9704 60.4272 23.7829 59.7833 23.4079C59.1431 23.0292 58.6488 22.5026 58.3003 21.8284C57.9518 21.1504 57.7776 20.3644 57.7776 19.4704C57.7776 18.5689 57.9518 17.781 58.3003 17.1068C58.6488 16.4288 59.1431 15.9023 59.7833 15.5273C60.4272 15.1485 61.1905 14.9591 62.0731 14.9591C62.9556 14.9591 63.717 15.1485 64.3572 15.5273C65.0011 15.9023 65.4973 16.4288 65.8458 17.1068C66.1943 17.781 66.3685 18.5689 66.3685 19.4704C66.3685 20.3644 66.1943 21.1504 65.8458 21.8284C65.4973 22.5026 65.0011 23.0292 64.3572 23.4079C63.717 23.7829 62.9556 23.9704 62.0731 23.9704ZM62.0844 22.0954C62.4859 22.0954 62.8212 21.9818 63.0901 21.7545C63.359 21.5235 63.5617 21.2091 63.6981 20.8114C63.8382 20.4136 63.9083 19.961 63.9083 19.4534C63.9083 18.9458 63.8382 18.4932 63.6981 18.0954C63.5617 17.6977 63.359 17.3833 63.0901 17.1523C62.8212 16.9212 62.4859 16.8057 62.0844 16.8057C61.6791 16.8057 61.3382 16.9212 61.0617 17.1523C60.789 17.3833 60.5825 17.6977 60.4424 18.0954C60.306 18.4932 60.2378 18.9458 60.2378 19.4534C60.2378 19.961 60.306 20.4136 60.4424 20.8114C60.5825 21.2091 60.789 21.5235 61.0617 21.7545C61.3382 21.9818 61.6791 22.0954 62.0844 22.0954ZM67.2606 26.3568V21.8795H67.931C68.1242 21.7583 68.2795 21.5651 68.3969 21.3C68.5181 21.0348 68.6166 20.7223 68.6924 20.3625C68.7719 20.0026 68.8325 19.6144 68.8742 19.1977C68.9197 18.7773 68.9594 18.353 68.9935 17.925L69.2208 15.0727H75.914V21.8795H77.2662V26.3568H74.9594V23.8H69.6242V26.3568H67.2606ZM70.3401 21.8795H73.6299V16.9364H71.2776L71.1867 17.925C71.1223 18.8568 71.0295 19.6485 70.9083 20.3C70.7871 20.9477 70.5977 21.4742 70.3401 21.8795ZM78.6768 27.0727V15.0727H81.0631V16.5386H81.1711C81.2771 16.3038 81.4305 16.0651 81.6313 15.8227C81.8358 15.5765 82.101 15.372 82.4268 15.2091C82.7563 15.0424 83.1654 14.9591 83.654 14.9591C84.2904 14.9591 84.8775 15.1257 85.4154 15.4591C85.9533 15.7886 86.3832 16.2867 86.7052 16.9534C87.0271 17.6163 87.1881 18.4477 87.1881 19.4477C87.1881 20.4212 87.0309 21.2432 86.7165 21.9136C86.4059 22.5803 85.9817 23.086 85.4438 23.4307C84.9097 23.7716 84.3112 23.942 83.6483 23.942C83.1786 23.942 82.779 23.8644 82.4495 23.7091C82.1237 23.5538 81.8567 23.3587 81.6483 23.1239C81.44 22.8852 81.2809 22.6447 81.1711 22.4023H81.0972V27.0727H78.6768ZM81.0461 19.4364C81.0461 19.9553 81.118 20.4079 81.262 20.7943C81.4059 21.1807 81.6143 21.4818 81.887 21.6977C82.1597 21.9098 82.4911 22.0159 82.8813 22.0159C83.2752 22.0159 83.6086 21.9079 83.8813 21.692C84.154 21.4723 84.3605 21.1693 84.5006 20.7829C84.6446 20.3928 84.7165 19.9439 84.7165 19.4364C84.7165 18.9326 84.6465 18.4894 84.5063 18.1068C84.3661 17.7242 84.1597 17.425 83.887 17.2091C83.6143 16.9932 83.279 16.8852 82.8813 16.8852C82.4874 16.8852 82.154 16.9894 81.8813 17.1977C81.6124 17.406 81.4059 17.7015 81.262 18.0841C81.118 18.4667 81.0461 18.9174 81.0461 19.4364ZM92.7449 23.9704C91.8624 23.9704 91.0991 23.7829 90.4552 23.4079C89.815 23.0292 89.3207 22.5026 88.9722 21.8284C88.6237 21.1504 88.4495 20.3644 88.4495 19.4704C88.4495 18.5689 88.6237 17.781 88.9722 17.1068C89.3207 16.4288 89.815 15.9023 90.4552 15.5273C91.0991 15.1485 91.8624 14.9591 92.7449 14.9591C93.6275 14.9591 94.3889 15.1485 95.029 15.5273C95.673 15.9023 96.1692 16.4288 96.5177 17.1068C96.8661 17.781 97.0404 18.5689 97.0404 19.4704C97.0404 20.3644 96.8661 21.1504 96.5177 21.8284C96.1692 22.5026 95.673 23.0292 95.029 23.4079C94.3889 23.7829 93.6275 23.9704 92.7449 23.9704ZM92.7563 22.0954C93.1578 22.0954 93.493 21.9818 93.762 21.7545C94.0309 21.5235 94.2336 21.2091 94.3699 20.8114C94.5101 20.4136 94.5802 19.961 94.5802 19.4534C94.5802 18.9458 94.5101 18.4932 94.3699 18.0954C94.2336 17.6977 94.0309 17.3833 93.762 17.1523C93.493 16.9212 93.1578 16.8057 92.7563 16.8057C92.351 16.8057 92.0101 16.9212 91.7336 17.1523C91.4608 17.3833 91.2544 17.6977 91.1143 18.0954C90.9779 18.4932 90.9097 18.9458 90.9097 19.4534C90.9097 19.961 90.9779 20.4136 91.1143 20.8114C91.2544 21.2091 91.4608 21.5235 91.7336 21.7545C92.0101 21.9818 92.351 22.0954 92.7563 22.0954ZM105.87 11.8682L106.609 13.4477C106.362 13.6523 106.09 13.8038 105.79 13.9023C105.491 13.997 105.133 14.0595 104.717 14.0898C104.304 14.1201 103.8 14.1409 103.205 14.1523C102.531 14.1598 101.982 14.2678 101.557 14.4761C101.133 14.6845 100.811 15.0121 100.592 15.4591C100.372 15.9023 100.228 16.4818 100.16 17.1977H100.245C100.506 16.6636 100.874 16.2507 101.347 15.9591C101.824 15.6674 102.413 15.5216 103.114 15.5216C103.857 15.5216 104.506 15.6845 105.063 16.0102C105.624 16.336 106.059 16.8038 106.37 17.4136C106.681 18.0235 106.836 18.7545 106.836 19.6068C106.836 20.4932 106.662 21.264 106.313 21.9193C105.968 22.5708 105.478 23.0765 104.842 23.4364C104.205 23.7924 103.448 23.9704 102.569 23.9704C101.686 23.9704 100.925 23.7848 100.285 23.4136C99.6483 23.0424 99.1559 22.4951 98.8074 21.7716C98.4627 21.0481 98.2904 20.1579 98.2904 19.1011V18.3852C98.2904 16.2829 98.6995 14.7242 99.5177 13.7091C100.336 12.6939 101.538 12.1788 103.126 12.1636C103.557 12.156 103.948 12.1542 104.296 12.1579C104.645 12.1617 104.949 12.1447 105.211 12.1068C105.476 12.0689 105.696 11.9894 105.87 11.8682ZM102.58 22.0954C102.951 22.0954 103.27 21.9989 103.535 21.8057C103.804 21.6125 104.01 21.336 104.154 20.9761C104.302 20.6163 104.376 20.1864 104.376 19.6864C104.376 19.1901 104.302 18.7697 104.154 18.425C104.01 18.0765 103.804 17.8114 103.535 17.6295C103.266 17.4477 102.944 17.3568 102.569 17.3568C102.288 17.3568 102.037 17.4079 101.813 17.5102C101.59 17.6125 101.398 17.764 101.239 17.9648C101.084 18.1617 100.963 18.406 100.876 18.6977C100.792 18.9856 100.751 19.3151 100.751 19.6864C100.751 20.4326 100.912 21.0216 101.234 21.4534C101.559 21.8814 102.008 22.0954 102.58 22.0954ZM114.516 18.4704V20.3739H109.959V18.4704H114.516ZM110.755 15.0727V23.8H108.442V15.0727H110.755ZM116.033 15.0727V23.8H113.738V15.0727H116.033ZM121.888 23.9704C120.991 23.9704 120.218 23.7886 119.57 23.425C118.926 23.0576 118.43 22.5386 118.082 21.8682C117.733 21.1939 117.559 20.3966 117.559 19.4761C117.559 18.5784 117.733 17.7905 118.082 17.1125C118.43 16.4345 118.921 15.906 119.553 15.5273C120.19 15.1485 120.936 14.9591 121.792 14.9591C122.368 14.9591 122.904 15.0519 123.4 15.2375C123.9 15.4193 124.335 15.6939 124.707 16.0614C125.082 16.4288 125.373 16.8909 125.582 17.4477C125.79 18.0007 125.894 18.6485 125.894 19.3909V20.0557H118.525V18.5557H123.616C123.616 18.2072 123.54 17.8985 123.388 17.6295C123.237 17.3606 123.027 17.1504 122.758 16.9989C122.493 16.8435 122.184 16.7659 121.832 16.7659C121.464 16.7659 121.138 16.8511 120.854 17.0216C120.574 17.1882 120.354 17.4136 120.195 17.6977C120.036 17.978 119.955 18.2905 119.951 18.6352V20.0614C119.951 20.4932 120.03 20.8663 120.19 21.1807C120.352 21.4951 120.582 21.7375 120.877 21.9079C121.172 22.0784 121.523 22.1636 121.928 22.1636C122.197 22.1636 122.443 22.1257 122.667 22.05C122.89 21.9742 123.082 21.8606 123.241 21.7091C123.4 21.5576 123.521 21.372 123.604 21.1523L125.843 21.3C125.729 21.8379 125.496 22.3076 125.144 22.7091C124.796 23.1068 124.345 23.4174 123.792 23.6409C123.243 23.8606 122.608 23.9704 121.888 23.9704ZM131.451 23.9704C130.553 23.9704 129.78 23.7886 129.133 23.425C128.489 23.0576 127.993 22.5386 127.644 21.8682C127.296 21.1939 127.121 20.3966 127.121 19.4761C127.121 18.5784 127.296 17.7905 127.644 17.1125C127.993 16.4345 128.483 15.906 129.116 15.5273C129.752 15.1485 130.498 14.9591 131.354 14.9591C131.93 14.9591 132.466 15.0519 132.962 15.2375C133.462 15.4193 133.898 15.6939 134.269 16.0614C134.644 16.4288 134.936 16.8909 135.144 17.4477C135.352 18.0007 135.457 18.6485 135.457 19.3909V20.0557H128.087V18.5557H133.178C133.178 18.2072 133.102 17.8985 132.951 17.6295C132.799 17.3606 132.589 17.1504 132.32 16.9989C132.055 16.8435 131.746 16.7659 131.394 16.7659C131.027 16.7659 130.701 16.8511 130.417 17.0216C130.137 17.1882 129.917 17.4136 129.758 17.6977C129.599 17.978 129.517 18.2905 129.513 18.6352V20.0614C129.513 20.4932 129.593 20.8663 129.752 21.1807C129.915 21.4951 130.144 21.7375 130.44 21.9079C130.735 22.0784 131.085 22.1636 131.491 22.1636C131.76 22.1636 132.006 22.1257 132.229 22.05C132.453 21.9742 132.644 21.8606 132.803 21.7091C132.962 21.5576 133.083 21.372 133.167 21.1523L135.405 21.3C135.292 21.8379 135.059 22.3076 134.707 22.7091C134.358 23.1068 133.907 23.4174 133.354 23.6409C132.805 23.8606 132.171 23.9704 131.451 23.9704Z" fill="url(#paint1_linear_193_1604)"/>
<defs>
<filter id="filter0_d_193_1604" x="0" y="0" width="181" height="41" filterUnits="userSpaceOnUse" color-interpolation-filters="sRGB">
<feFlood flood-opacity="0" result="BackgroundImageFix"/>
<feColorMatrix in="SourceAlpha" type="matrix" values="0 0 0 0 0 0 0 0 0 0 0 0 0 0 0 0 0 0 127 0" result="hardAlpha"/>
<feOffset dy="2"/>
<feGaussianBlur stdDeviation="2"/>
<feComposite in2="hardAlpha" operator="out"/>
<feColorMatrix type="matrix" values="0 0 0 0 0 0 0 0 0 0 0 0 0 0 0 0 0 0 0.25 0"/>
<feBlend mode="normal" in2="BackgroundImageFix" result="effect1_dropShadow_193_1604"/>
<feBlend mode="normal" in="SourceGraphic" in2="effect1_dropShadow_193_1604" result="shape"/>
</filter>
<linearGradient id="paint0_linear_193_1604" x1="-17.9083" y1="-1.74164" x2="172.84" y2="82.6325" gradientUnits="userSpaceOnUse">
<stop stop-color="#8930CB"/>
<stop offset="1" stop-color="#FDA1BA"/>
</linearGradient>
<linearGradient id="paint1_linear_193_1604" x1="-7.06757" y1="4.21486" x2="147.034" y2="93.0072" gradientUnits="userSpaceOnUse">
<stop stop-color="#8930CB"/>
<stop offset="1" stop-color="#FDA1BA"/>
</linearGradient>
</defs>
</svg>
