<svg width="34" height="30" viewBox="0 0 34 30" fill="none" xmlns="http://www.w3.org/2000/svg">

<path d="M-0.000976567 15.1398L3.56783 12.1559L11.6123 18.73C17.619 11.4526 24.4635 5.17704 32.352 0.0733032C32.4312 0.263386 32.4992 0.425431 32.5677 0.588903C32.7529 1.03227 32.9316 1.47897 33.127 1.91948C33.195 2.07298 33.1779 2.16564 33.0557 2.28302C31.4025 3.86784 29.8373 5.54057 28.3337 7.2765C26.1136 9.84942 24.0285 12.5418 22.0873 15.3422C20.4998 17.6232 19.0008 19.9655 17.6176 22.3838C16.2751 24.7337 15.0131 27.1278 14.0219 29.6616C13.9946 29.7325 13.959 29.7999 13.9136 29.8993C9.27093 24.9726 4.63274 20.0528 -0.000976567 15.1398Z" fill="url(#paint0_linear_193_511)"/>

<defs>
<linearGradient id="paint0_linear_193_511" x1="-5.06875e-05" y1="14.9853" x2="33.1691" y2="14.9853" gradientUnits="userSpaceOnUse">
<stop offset="0.02" stop-color="#A5630F"/>
<stop offset="0.15" stop-color="#DCB04F"/>
<stop offset="0.38" stop-color="#FFFD66"/>
<stop offset="0.68" stop-color="#C38D34"/>
<stop offset="0.87" stop-color="#FF9A17"/>
<stop offset="1" stop-color="#824E0C"/>
</linearGradient>
</defs>
</svg>
