<svg width="201" height="54" viewBox="0 0 201 54" fill="none" xmlns="http://www.w3.org/2000/svg">
<path d="M30.127 42.2813H38.1467V45.7266H24.5061V43.1484L32.2436 32.9531H24.7413V29.4375H37.9116V32.0156L30.127 42.2813Z" fill="black"/>
<path d="M47.0837 45.7266H42.6858V22.5703H47.0837V45.7266Z" fill="black"/>
<path d="M59.8072 46.1015C58.7291 46.1448 57.6533 45.9722 56.6434 45.5937C55.6335 45.2153 54.71 44.6388 53.9276 43.8984C53.1472 43.1343 52.5351 42.2166 52.1302 41.2038C51.7253 40.1909 51.5364 39.1052 51.5758 38.0156V37.5937C51.5451 36.0724 51.867 34.5646 52.5165 33.1875C53.1111 31.9426 54.0598 30.8993 55.2446 30.1875C56.4523 29.4707 57.8374 29.1054 59.2427 29.1328C60.2254 29.0817 61.2075 29.2439 62.1211 29.6081C63.0348 29.9723 63.8581 30.5298 64.5344 31.2422C65.9255 32.932 66.6229 35.0841 66.4864 37.2656V39.0469H56.2324C56.3301 40.0307 56.7811 40.9462 57.5024 41.625C58.2583 42.2755 59.2323 42.6186 60.2305 42.5859C60.9882 42.6213 61.7432 42.4735 62.4312 42.1552C63.1192 41.8368 63.7197 41.3574 64.1816 40.7578L66.3453 43.1015C65.6578 44.0431 64.7329 44.787 63.6642 45.2578C62.4593 45.8267 61.1404 46.1153 59.8072 46.1015ZM59.3133 32.6484C58.9169 32.6361 58.5226 32.7093 58.1572 32.863C57.7919 33.0168 57.4642 33.2474 57.1967 33.539C56.6221 34.2641 56.2855 35.1479 56.2324 36.0703H62.3237V35.7187C62.3598 35.2961 62.3097 34.8705 62.1763 34.4677C62.0429 34.0649 61.829 33.6932 61.5475 33.375C61.2485 33.1023 60.8945 32.8964 60.5092 32.7711C60.1239 32.6458 59.7162 32.604 59.3133 32.6484Z" fill="black"/>
<path d="M75.8702 25.4062V29.4375H78.6924V32.6484H75.8702V40.8047C75.8256 41.2702 75.9509 41.7362 76.2229 42.1172C76.408 42.27 76.6221 42.3841 76.8525 42.4525C77.0828 42.521 77.3246 42.5424 77.5635 42.5156C77.9974 42.5163 78.4304 42.4771 78.857 42.3984V45.7266C77.9943 45.9804 77.0989 46.1068 76.1994 46.1016C75.5616 46.1865 74.9128 46.1237 74.3033 45.9182C73.6938 45.7126 73.14 45.3698 72.685 44.9164C72.23 44.4629 71.886 43.9111 71.6798 43.3037C71.4735 42.6963 71.4106 42.0497 71.4958 41.4141V32.6484H69.1439V29.4375H71.4958V25.4062H75.8702Z" fill="black"/>
<path d="M94.4497 40.0312C94.4674 39.6537 94.3933 39.2775 94.2336 38.9347C94.0739 38.5919 93.8333 38.2926 93.5325 38.0625C92.5193 37.4071 91.4079 36.9166 90.2399 36.6094C88.9484 36.2191 87.6965 35.7091 86.5005 35.0859C85.4099 34.6368 84.4737 33.8815 83.8056 32.9121C83.1376 31.9426 82.7666 30.8007 82.7376 29.625C82.7222 28.4818 83.0769 27.3641 83.7489 26.4375C84.4857 25.4518 85.4891 24.6957 86.6416 24.2578C87.9887 23.7278 89.4267 23.4651 90.8749 23.4844C92.3306 23.4579 93.7747 23.7458 95.1082 24.3281C96.2649 24.828 97.2586 25.6397 97.9775 26.6719C98.6672 27.7231 99.0274 28.955 99.0123 30.2109H94.4497C94.4769 29.7731 94.4043 29.3348 94.2373 28.9289C94.0703 28.5229 93.8133 28.16 93.4855 27.8672C92.7279 27.2639 91.7722 26.9631 90.8044 27.0234C89.888 26.9688 88.979 27.2158 88.2173 27.7266C87.9284 27.9425 87.6933 28.2218 87.5301 28.5429C87.367 28.864 87.2802 29.2182 87.2766 29.5781C87.2876 29.9487 87.3953 30.3101 87.5891 30.6266C87.7829 30.943 88.0562 31.2037 88.382 31.3828C89.3725 31.9793 90.4409 32.4367 91.5569 32.7422C93.6479 33.2444 95.59 34.2322 97.2249 35.625C97.8102 36.1782 98.272 36.8482 98.58 37.5913C98.888 38.3344 99.0353 39.1338 99.0123 39.9375C99.0444 40.8028 98.8641 41.6628 98.487 42.443C98.11 43.2231 97.5475 43.8997 96.8486 44.414C95.1232 45.5696 93.0686 46.1369 90.9925 46.0312C89.3778 46.0563 87.7757 45.745 86.2888 45.1172C85.0092 44.5717 83.9032 43.6884 83.0903 42.5625C82.3538 41.452 81.9763 40.1433 82.0085 38.8125H86.5711C86.5711 41.1562 88.0292 42.4453 90.9455 42.4453C91.8405 42.5002 92.7299 42.2704 93.4855 41.789C93.7798 41.5987 94.022 41.3383 94.1903 41.0315C94.3587 40.7247 94.4478 40.3809 94.4497 40.0312Z" fill="url(#paint0_linear_193_914)"/>
<path d="M112.888 45.7266C112.658 45.2624 112.507 44.7634 112.441 44.25C111.922 44.8269 111.283 45.2832 110.567 45.5869C109.852 45.8906 109.079 46.0343 108.302 46.0078C106.841 46.0737 105.41 45.5788 104.304 44.625C103.791 44.195 103.381 43.6561 103.104 43.0478C102.828 42.4395 102.691 41.7772 102.705 41.1094C102.672 40.3384 102.831 39.5713 103.168 38.8762C103.504 38.1812 104.007 37.5796 104.633 37.125C106.305 36.0833 108.263 35.5914 110.23 35.7188H112.253V34.7813C112.291 34.1203 112.082 33.4689 111.665 32.9531C111.426 32.7152 111.139 32.5314 110.822 32.4141C110.506 32.2968 110.167 32.2488 109.831 32.2735C109.204 32.2389 108.587 32.4303 108.09 32.8125C107.88 32.9906 107.714 33.2141 107.604 33.4659C107.494 33.7177 107.443 33.9912 107.455 34.2656H103.081C103.088 33.3286 103.392 32.4177 103.951 31.6641C104.596 30.8196 105.457 30.1638 106.444 29.7656C107.594 29.3033 108.825 29.0723 110.066 29.0859C111.765 29.0261 113.43 29.5656 114.769 30.6094C115.365 31.1439 115.832 31.8046 116.137 32.5427C116.442 33.2809 116.578 34.0779 116.533 34.875V41.9063C116.525 43.1742 116.815 44.4265 117.38 45.5625V45.7266H112.888ZM109.243 42.6797C109.875 42.6882 110.498 42.5348 111.054 42.2344C111.565 41.9866 111.984 41.5848 112.253 41.086V38.2734H110.607C108.42 38.2734 107.244 39.0234 107.103 40.6172V40.875C107.096 41.1249 107.143 41.3733 107.24 41.6037C107.337 41.834 107.483 42.0411 107.667 42.211C108.105 42.5847 108.666 42.7849 109.243 42.7734V42.6797Z" fill="url(#paint1_linear_193_914)"/>
<path d="M126.223 45.7266H121.825V22.5703H126.223V45.7266Z" fill="url(#paint2_linear_193_914)"/>
<path d="M141.228 44.1562C140.678 44.8013 139.987 45.3121 139.209 45.6494C138.43 45.9866 137.584 46.1413 136.736 46.1016C135.993 46.1518 135.249 46.0441 134.551 45.7855C133.854 45.5269 133.219 45.1233 132.691 44.6016C131.69 43.3481 131.187 41.7711 131.279 40.1719V29.4375H135.677V40.0312C135.677 41.7422 136.453 42.5859 138.029 42.5859C138.634 42.6439 139.242 42.5292 139.783 42.2553C140.325 41.9814 140.777 41.5595 141.087 41.0391V29.4375H145.602V45.8437H141.345L141.228 44.1562Z" fill="url(#paint3_linear_193_914)"/>
<path d="M155.597 25.4062V29.4375H158.42V32.6484H155.597V40.8047C155.553 41.2702 155.678 41.7362 155.95 42.1172C156.135 42.27 156.349 42.3841 156.58 42.4525C156.81 42.521 157.052 42.5424 157.291 42.5156C157.725 42.5163 158.158 42.477 158.584 42.3984V45.7266C157.721 45.9775 156.826 46.1038 155.927 46.1016C155.29 46.1816 154.643 46.1155 154.036 45.9083C153.428 45.701 152.877 45.3581 152.423 44.9058C151.969 44.4535 151.625 43.9037 151.417 43.2985C151.209 42.6933 151.143 42.0487 151.223 41.4141V32.6484H148.871V29.4375H151.223V25.4062H155.597Z" fill="url(#paint4_linear_193_914)"/>
<path d="M162.629 43.6641C162.616 43.3484 162.672 43.0337 162.794 42.7421C162.916 42.4505 163.1 42.1892 163.335 41.9766C163.829 41.5541 164.459 41.3219 165.111 41.3219C165.762 41.3219 166.392 41.5541 166.886 41.9766C167.121 42.1892 167.305 42.4505 167.427 42.7421C167.549 43.0337 167.605 43.3484 167.592 43.6641C167.606 43.9742 167.553 44.2838 167.435 44.5712C167.317 44.8586 167.138 45.1169 166.91 45.3281C166.411 45.7523 165.778 45.9854 165.122 45.9854C164.467 45.9854 163.833 45.7523 163.335 45.3281C163.102 45.1191 162.918 44.8617 162.797 44.5742C162.675 44.2867 162.618 43.976 162.629 43.6641Z" fill="black"/>
<path d="M182.244 33.5391C181.715 33.4584 181.18 33.4192 180.644 33.4219C179.998 33.3363 179.34 33.4498 178.76 33.7473C178.18 34.0447 177.705 34.5118 177.399 35.0859V45.7266H173.001V29.3203H177.14V31.2656C177.468 30.5702 177.986 29.9812 178.636 29.5666C179.285 29.1519 180.038 28.9284 180.809 28.9219C181.27 28.9218 181.729 28.9849 182.173 29.1094L182.244 33.5391Z" fill="black"/>
<path d="M195.743 44.1562C195.194 44.8013 194.503 45.3121 193.724 45.6494C192.945 45.9866 192.099 46.1413 191.251 46.1016C190.509 46.1518 189.764 46.0441 189.067 45.7855C188.369 45.5269 187.735 45.1233 187.206 44.6016C186.205 43.3481 185.703 41.7711 185.795 40.1719V29.4375H190.287V40.0312C190.287 41.7422 191.087 42.5859 192.639 42.5859C193.244 42.6497 193.854 42.5376 194.397 42.2631C194.94 41.9887 195.391 41.5635 195.696 41.0391V29.4375H200.118V45.8437H195.861L195.743 44.1562Z" fill="black"/>
<path d="M34.6191 10.9922L34.3368 0.304679C34.3358 0.248085 34.3189 0.192908 34.2881 0.145334C34.2574 0.09776 34.2139 0.0596702 34.1626 0.0353346C34.1113 0.010999 34.0543 0.00138028 33.9978 0.00755696C33.9413 0.0137336 33.8877 0.0354611 33.843 0.0703039L25.4469 6.72655L27.6576 7.78124L21.7075 20.5312C21.6508 20.659 21.6461 20.8037 21.6943 20.9349C21.7426 21.066 21.8401 21.1734 21.9662 21.2344L25.7056 22.9687C25.8338 23.0253 25.979 23.03 26.1106 22.9819C26.2423 22.9338 26.35 22.8366 26.4112 22.7109L32.3613 9.98437L34.6191 10.9922Z" fill="url(#paint5_linear_193_914)"/>
<path d="M29.0452 16.5703C28.9819 16.6148 28.9312 16.6749 28.8982 16.7447C28.8652 16.8146 28.8511 16.8918 28.857 16.9687C28.857 17.1094 28.857 17.1797 28.6689 17.1797H28.5043C28.498 17.32 28.4577 17.4568 28.3867 17.5781C28.3867 17.7187 28.1515 17.8594 28.1985 18.0703C28.2456 18.2812 28.1985 18.2344 28.0104 18.3047C27.8222 18.375 27.8457 18.0469 27.6341 17.6484C27.5061 17.429 27.411 17.1922 27.3519 16.9453V17.1797C27.1812 17.2782 26.9833 17.3193 26.7874 17.2969H26.1995C26.4582 17.2969 26.3641 17.0156 26.4582 16.8984C26.5191 16.8038 26.5666 16.7013 26.5993 16.5937C26.5993 16.5937 26.5993 16.5937 26.5993 16.4062C26.5993 16.2187 26.5993 16.2422 26.7874 16.2891H26.9285C26.9418 16.1174 26.9418 15.9451 26.9285 15.7734L26.8109 15.5391C26.6886 15.3663 26.6155 15.1639 26.5993 14.9531C26.5993 14.7891 26.5993 14.6484 26.5993 14.4844C26.5891 14.4302 26.5891 14.3745 26.5993 14.3203C26.695 14.1453 26.7814 13.9654 26.858 13.7812L27.0461 13.3125C27.0461 13.7578 27.4224 14.1328 27.3048 14.625C27.1971 14.7726 27.1026 14.9295 27.0226 15.0938C27.0226 15.0938 27.0226 15.2578 27.0226 15.3516V15.2109C26.9892 15.2764 26.9828 15.3522 27.0048 15.4223C27.0268 15.4924 27.0754 15.5511 27.1402 15.5859C27.2009 15.4522 27.2406 15.3099 27.2578 15.1641C27.2578 14.9062 27.4459 14.7422 27.6106 14.5547C27.6106 14.7656 27.7987 14.9531 27.8693 15.1641C27.8823 15.3904 27.8823 15.6174 27.8693 15.8437H27.9869C27.9908 15.9218 27.9908 16 27.9869 16.0781C27.9869 16.0781 27.9869 16.2188 27.9869 16.2656C27.9935 16.303 28.0102 16.3378 28.0351 16.3665C28.06 16.3952 28.0922 16.4167 28.1283 16.4287C28.1644 16.4407 28.2031 16.4428 28.2403 16.4347C28.2775 16.4266 28.3118 16.4087 28.3396 16.3828C28.3396 16.3828 28.5278 16.3828 28.6219 16.3828C28.6987 16.4049 28.7802 16.4049 28.857 16.3828H29.0922C29.2333 16.3828 29.2804 16.3828 29.2804 16.3828V16.1484C29.5156 16.1484 29.7272 16.1484 29.9624 16.0078C30.1976 15.8672 30.2446 16.1484 30.1505 16.3594C30.1374 16.437 30.1374 16.5162 30.1505 16.5937C30.1505 16.7578 30.0094 16.8047 29.8918 16.8516L29.0922 17.1328H28.8806C29.0687 16.9922 28.8806 16.7109 29.2333 16.7109C29.5861 16.7109 29.0922 16.7109 29.0217 16.7109H29.2333V16.5469L29.0452 16.5703ZM27.7517 16.3359L27.3989 16.7578C27.587 16.7578 27.7517 16.5 27.7517 16.3359Z" fill="black"/>
<path d="M30.0094 10.4063C30.1505 10.4063 30.1976 10.4063 30.2681 10.4063L29.9859 10.6875C29.9859 10.6875 29.7978 10.6875 29.7978 10.8516L30.2681 10.6875H30.127L30.3622 10.5703C30.4798 10.5703 30.5739 10.5703 30.6679 10.5703C30.762 10.5703 30.9737 10.8516 31.2089 10.8281L30.9972 11.1094L31.35 10.8516H31.6087C31.6087 11.0156 31.8439 10.8516 31.9144 11.0391C31.985 11.2266 32.1966 11.0391 32.3848 11.0391C32.5729 11.0391 32.3848 11.2031 32.2437 11.2266C32.1219 11.3464 31.9782 11.4419 31.8203 11.5078C31.7133 11.5419 31.5982 11.5419 31.4911 11.5078C31.3605 11.4382 31.2348 11.3599 31.1148 11.2734C31.0176 11.217 30.9152 11.1699 30.809 11.1328L30.4563 10.9688H30.3152C30.2723 10.9038 30.2123 10.852 30.1418 10.8189C30.0712 10.7858 29.9929 10.7728 29.9153 10.7813C29.8297 10.7952 29.7423 10.7952 29.6567 10.7813L29.3039 10.5938H29.0687C28.857 10.5938 28.6689 10.3594 28.4572 10.2422H28.2691L28.7394 10.7578H28.5983C28.5983 10.7578 28.5983 10.6406 28.4572 10.7578C28.3936 10.783 28.3372 10.8233 28.2926 10.875V10.7578C28.2524 10.7862 28.2062 10.8053 28.1576 10.8135C28.109 10.8218 28.0592 10.8191 28.0118 10.8056C27.9644 10.7921 27.9206 10.7681 27.8837 10.7355C27.8469 10.7029 27.8178 10.6625 27.7987 10.6172C27.7987 10.4063 27.587 10.1719 27.4694 9.98438C27.3776 9.89489 27.2642 9.83034 27.1402 9.79688H26.8815C26.8582 9.72848 26.8582 9.65433 26.8815 9.58594C26.8815 9.58594 26.8815 9.58594 27.0461 9.58594C27.0461 9.58594 27.0461 9.58594 27.0461 9.42188C27.0461 9.25781 27.0461 9.25781 27.0461 9.16406H27.3754C27.4994 9.28231 27.6542 9.36352 27.8222 9.39844C27.9345 9.45248 28.0377 9.52365 28.128 9.60938H28.5983H28.7394L29.2568 9.84375C29.4465 10.1012 29.7083 10.2969 30.0094 10.4063Z" fill="black"/>
<path d="M25.3058 21.6328L25.588 21.3984L25.8937 21.0938H26.223L26.6698 21.2578L27.0461 21.4453C27.2108 21.4453 27.3284 21.4453 27.446 21.4453C27.5635 21.4453 27.6106 21.4453 27.5635 21.6797L27.7752 21.0938C27.7752 21.0938 27.9163 21.0938 27.9398 21.2109C27.9634 21.3281 28.0809 21.6562 27.9398 21.8672C27.9398 21.9844 27.9398 22.0078 27.7282 21.9844L27.0932 21.8438H26.7639C26.7639 21.8438 26.7639 21.8438 26.6228 21.7266H26.8815H26.6934C26.6934 21.7266 26.9756 21.7266 26.9756 21.5625C26.9756 21.3984 26.6934 21.5625 26.5993 21.7266C26.5052 21.8906 26.4817 21.9375 26.3876 21.9375C26.2883 21.9697 26.1812 21.9697 26.0819 21.9375L25.6586 21.75L25.3058 21.6328Z" fill="black"/>
<path d="M27.4929 6.5625L27.6811 6.72656L28.4337 7.26563L28.9275 7.61719L29.1392 7.75781L29.9623 8.13281L30.9266 8.53125C31.1344 8.6562 31.3552 8.75835 31.5851 8.83594L32.4553 9.09375C32.6552 9.16206 32.8595 9.21688 33.0668 9.25781C33.3148 9.30956 33.5585 9.38007 33.7958 9.46875H33.9134C33.9134 9.65625 33.9134 9.70312 33.6782 9.65625L32.714 9.39844H32.3377L31.6792 9.14063H31.397L30.9501 9.02344H30.6914L29.9859 8.71875C29.7977 8.50781 29.5155 8.48438 29.2803 8.34375C29.123 8.2639 28.9734 8.16975 28.8335 8.0625L28.2925 7.6875L27.6105 7.05469L27.4929 6.5625Z" fill="black"/>
<path d="M25.1176 21.5391L24.4826 21.3516L24.3415 21.2109L23.8241 20.9531H23.6595C23.6595 20.9531 23.5419 20.9531 23.5184 20.9531C23.5001 20.908 23.5001 20.8576 23.5184 20.8125C23.6251 20.7664 23.7192 20.6956 23.7928 20.6059C23.8665 20.5162 23.9175 20.4102 23.9417 20.2969C24.122 20.3231 24.2968 20.3785 24.4591 20.4609C24.6002 20.4609 24.8354 20.4609 24.8589 20.6484H25.2587L25.588 20.8359C25.588 20.8359 25.588 20.8359 25.588 20.9531L25.1176 21.5391ZM24.8354 20.8359C24.5532 20.8359 24.5297 20.8359 24.5532 21.0469H24.6943L24.8354 20.8359Z" fill="black"/>
<path d="M24.6943 16.0313V16.2656H24.8119C24.8119 16.1484 24.9295 16.1484 25.0001 16.1484H25.588C25.588 16.1484 25.588 16.1484 25.588 16.3125L25.3999 16.5469L25.2352 16.7578C25.1577 16.8526 25.0542 16.923 24.9373 16.9605C24.8205 16.9979 24.6952 17.0008 24.5767 16.9687H24.3415H24.2004L23.9652 16.6406C23.9379 16.5819 23.9237 16.5179 23.9237 16.4531C23.9237 16.3884 23.9379 16.3244 23.9652 16.2656L24.1534 15.9141H24.271L24.6943 16.0313Z" fill="black"/>
<path d="M29.0922 12.4688H29.2568L29.5155 12.2109V12.3984L30.0094 12.1875L30.174 12.0469L30.5503 12.4453L30.809 12.6328V12.8438L30.5268 12.9609C30.4454 13.0318 30.3409 13.0709 30.2328 13.0709C30.1247 13.0709 30.0202 13.0318 29.9388 12.9609L30.1505 13.125C30.1505 13.125 30.1505 13.125 30.1505 13.3125C30.1505 13.5 30.0094 13.3125 29.9859 13.3125L29.539 12.9141H29.3273C29.2279 12.7776 29.1487 12.6277 29.0922 12.4688Z" fill="black"/>
<path d="M28.2455 11.2266H28.7394C28.7814 11.2538 28.8304 11.2683 28.8805 11.2683C28.9306 11.2683 28.9796 11.2538 29.0216 11.2266C29.1627 11.2266 29.3038 11.3906 29.3038 11.5313L29.539 11.6719L29.7036 11.8359V11.9531H29.5625C29.5625 12.1875 29.4449 12.0938 29.3508 12.1172C29.2568 12.1406 29.1157 12.1172 29.0216 12.1172C28.9275 12.1172 28.6923 12.1172 28.6218 12.1172L28.1749 11.4609C28.1886 11.3802 28.2123 11.3015 28.2455 11.2266Z" fill="black"/>
<path d="M26.7639 12.0469C26.4433 12.212 26.1929 12.4865 26.0584 12.8203C26.0503 12.6954 26.0503 12.5702 26.0584 12.4453C26.0346 12.1959 26.0346 11.9447 26.0584 11.6953C26.1131 11.5446 26.2016 11.4084 26.3171 11.2969H26.4347C26.478 11.1704 26.5415 11.0516 26.6228 10.9453C26.7014 10.8555 26.8101 10.7973 26.9286 10.7812C26.9286 10.7813 27.0462 10.8984 27.0462 10.9453C27.0462 10.9922 26.9286 11.2266 26.8815 11.3437V11.5547C26.8815 11.5547 26.8815 11.5547 26.8815 11.6953C26.8223 11.8049 26.7825 11.9238 26.7639 12.0469Z" fill="black"/>
<path d="M30.033 13.4063C30.0433 13.3797 30.0588 13.3555 30.0788 13.3351C30.0987 13.3147 30.1226 13.2986 30.149 13.2876C30.1753 13.2767 30.2037 13.2712 30.2322 13.2714C30.2608 13.2717 30.289 13.2777 30.3152 13.2891C30.4136 13.2025 30.5246 13.1314 30.6444 13.0781C30.762 13.0781 30.8326 13.0781 30.8796 12.9375C30.9093 12.9127 30.9467 12.8991 30.9854 12.8991C31.0242 12.8991 31.0616 12.9127 31.0913 12.9375L31.6322 13.1953C31.6322 13.4063 31.35 13.5234 31.4441 13.8047C31.2324 13.8047 31.2794 13.9219 31.2089 13.9922C31.187 14.0213 31.1586 14.0449 31.1259 14.0612C31.0933 14.0775 31.0572 14.0859 31.0207 14.0859C30.9842 14.0859 30.9482 14.0775 30.9156 14.0612C30.8829 14.0449 30.8545 14.0213 30.8326 13.9922C30.668 13.9922 30.5739 13.8047 30.4093 13.7813C30.2446 13.7578 30.2681 13.7813 30.2211 13.7813C30.1741 13.7813 30.1035 13.4766 30.033 13.4063Z" fill="black"/>
<path d="M29.5155 4.73438C29.7036 4.73438 29.7977 4.73437 29.9153 4.92187L30.5033 5.25L30.9266 5.4375L31.2088 5.60156L31.5616 5.74219L32.2201 6L32.6434 6.1875C32.8081 6.1875 32.9492 6.1875 33.1373 6.1875C33.2451 6.17326 33.3546 6.18043 33.4595 6.20859C33.5645 6.23675 33.6628 6.28534 33.7488 6.35156L33.8664 6.51563L33.3255 6.375L32.4553 6.1875L32.079 6.07031C31.9803 6.0956 31.8764 6.0913 31.7801 6.05795C31.6839 6.02459 31.5997 5.96367 31.5381 5.88281H31.3499L30.5268 5.41406L29.7742 4.92187L29.5155 4.73438Z" fill="black"/>
<path d="M26.6699 13.5C26.4817 13.5 26.6699 13.7109 26.5523 13.8047C26.528 13.9364 26.528 14.0714 26.5523 14.2031C26.5523 14.2031 26.3406 14.2031 26.3641 13.9453C26.3483 13.8287 26.3483 13.7104 26.3641 13.5937C26.1525 13.7109 26.0584 13.5937 26.0349 13.3828C26.0113 13.1719 26.0349 13.1719 26.0349 13.0781C26.0349 12.9844 26.0349 13.0781 26.0349 12.9375C26.0349 12.9375 26.1525 12.6797 26.223 12.5625C26.3272 12.4552 26.4372 12.3535 26.5523 12.2578C26.5999 12.2738 26.6402 12.3062 26.6661 12.3491C26.6919 12.3921 26.7016 12.4428 26.6934 12.4922C26.6824 12.5699 26.6824 12.6488 26.6934 12.7266C26.6934 12.8437 26.6934 12.9844 26.6934 13.1016L26.4817 13.7344L26.6699 13.5Z" fill="black"/>
<path d="M25.9408 17.2266C25.635 17.2266 25.3528 17.1094 25.0236 17.0156L25.3763 16.7109C25.4504 16.6609 25.5143 16.5973 25.5645 16.5234C25.6081 16.4396 25.6474 16.3535 25.6821 16.2656C25.6821 16.2656 25.6821 16.2656 25.8467 16.2656H26.0584H26.5052L25.9408 17.2266Z" fill="black"/>
<path d="M22.366 20.1328L22.8363 19.9922C22.8363 19.9922 22.8363 19.8516 22.9774 19.9922H23.3067C23.4231 20.0326 23.5337 20.0877 23.636 20.1562L23.7535 20.3203H23.636V20.4844C23.636 20.4844 23.4008 20.3203 23.4243 20.4844C23.4478 20.6484 23.3067 20.4844 23.2597 20.4844C23.2226 20.5129 23.1771 20.5283 23.1303 20.5283C23.0835 20.5283 23.038 20.5129 23.001 20.4844L22.5071 20.1797C22.5071 20.1797 22.5071 20.1797 22.5071 20.0391L22.366 20.1328Z" fill="black"/>
<path d="M23.0009 19.0312C23.0009 19.289 22.8363 19.5234 23.0009 19.7344L22.2954 20.0625C22.2304 19.926 22.1754 19.785 22.1307 19.6406C22.1431 19.5399 22.1936 19.4477 22.2718 19.3828L22.6246 19.0781C22.6399 19.0625 22.6582 19.0501 22.6784 19.0417C22.6986 19.0332 22.7203 19.0289 22.7422 19.0289C22.7641 19.0289 22.7858 19.0332 22.806 19.0417C22.8262 19.0501 22.8445 19.0625 22.8598 19.0781L23.0009 19.0312Z" fill="black"/>
<path d="M28.6924 18.75V18.6328C28.5513 18.7734 28.6924 19.0312 28.4572 19.125C28.3684 19.0286 28.3048 18.9119 28.2719 18.7852C28.2391 18.6585 28.2381 18.5256 28.2691 18.3984C28.2691 18.2578 28.4337 18.1641 28.4337 18C28.4337 17.8359 28.5983 17.7422 28.6924 17.6016C28.7571 17.7221 28.8121 17.8474 28.857 17.9766C28.8672 18.1092 28.8672 18.2424 28.857 18.375C28.5748 18.4687 28.6924 18.6094 28.6924 18.75Z" fill="black"/>
<path d="M33.302 3.91406C33.302 3.91406 33.0903 3.91406 32.9727 3.91406C32.7916 3.8916 32.6162 3.83598 32.4553 3.75C32.2703 3.66553 32.0897 3.57166 31.9144 3.46875L31.4675 3.28125H31.5851L32.032 3.46875C32.2574 3.50821 32.4853 3.53171 32.714 3.53906L33.396 3.72656H33.7018H34.1251C34.1251 3.72656 34.1251 3.72656 34.1251 3.84375H33.9605L33.302 3.91406Z" fill="black"/>
<path d="M28.9276 18.3281L29.0687 18.6562C29.1016 18.7405 29.1079 18.8327 29.0869 18.9206C29.0659 19.0085 29.0185 19.088 28.9511 19.1484C28.9054 19.2547 28.8504 19.3566 28.7865 19.4531C28.7865 19.4531 28.7865 19.4531 28.6219 19.4531C28.6135 19.4066 28.6135 19.359 28.6219 19.3125C28.6219 19.1016 28.6219 18.8672 28.8806 18.6797C29.1393 18.4922 28.8806 18.4922 28.9276 18.3281Z" fill="black"/>
<path d="M22.8363 50.1797H22.6952C22.6564 50.1599 22.6219 50.1326 22.5938 50.0994C22.5656 50.0663 22.5444 50.0279 22.5312 49.9864C22.5181 49.945 22.5134 49.9014 22.5173 49.8581C22.5212 49.8149 22.5337 49.7728 22.5541 49.7344C22.8128 49.2422 22.8833 48.8672 22.7657 48.6328C22.6481 48.3984 21.1665 47.9297 20.0141 47.8125C18.8617 47.6953 17.2624 47.5078 16.8861 46.6641C16.5099 45.8203 16.8861 45.4219 17.5211 44.5547C18.1561 43.6875 18.2267 43.2422 18.2032 43.1953C18.1797 43.1484 17.7798 43.0313 17.5211 42.9844C17.2624 42.9375 16.4393 42.8438 16.2041 42.3516C15.9689 41.8594 16.063 41.4609 16.4158 40.7578C17.9445 37.5938 24.0828 24.1641 24.1533 24.0234C24.1977 23.9636 24.2613 23.9205 24.3335 23.9014C24.4057 23.8822 24.4823 23.8881 24.5507 23.9181C24.6191 23.9481 24.6752 24.0004 24.7099 24.0664C24.7445 24.1324 24.7556 24.2082 24.7413 24.2813C24.7413 24.4219 18.5324 37.8516 16.9802 41.0391C16.6745 41.6953 16.7215 41.9531 16.7686 42.0703C16.8156 42.1875 17.2624 42.3047 17.6152 42.3516C17.968 42.3984 18.6265 42.4922 18.8147 42.9375C19.0028 43.3828 18.8147 43.9688 18.0385 44.9297C17.2624 45.8906 17.3565 46.1016 17.4741 46.4063C17.5917 46.711 18.9558 47.0391 20.0846 47.1563C21.2135 47.2735 22.8833 47.461 23.3302 48.3281C23.4409 48.6083 23.4796 48.9116 23.4426 49.2104C23.4056 49.5093 23.2942 49.7941 23.1185 50.0391C23.0887 50.0859 23.0467 50.1237 22.997 50.1485C22.9473 50.1733 22.8917 50.184 22.8363 50.1797Z" fill="#1D1D1B"/>
<path d="M22.2484 51.1172C22.2484 51.3516 22.0367 51.4922 21.9662 51.7031C21.8956 51.9141 21.9662 51.7031 21.9662 51.8438C21.9874 51.8749 21.9988 51.9116 21.9988 51.9492C21.9988 51.9868 21.9874 52.0236 21.9662 52.0547C21.9662 52.0547 21.9662 52.2188 21.9662 52.3125C21.9662 52.4063 22.2484 52.6172 22.3895 52.7578C22.5127 52.839 22.6166 52.9462 22.6938 53.0717C22.771 53.1972 22.8196 53.3381 22.8363 53.4844C22.8363 53.4844 22.8363 53.6016 22.8363 53.6719C22.7441 53.8156 22.6026 53.921 22.4382 53.9684C22.2738 54.0158 22.0976 54.0021 21.9426 53.9297C21.6686 53.7953 21.4577 53.56 21.3547 53.2734C21.2889 53.0813 21.234 52.8857 21.1901 52.6875C21.1901 52.6875 21.1901 52.5234 21.1901 52.4297C21.2028 52.2894 21.2028 52.1482 21.1901 52.0078C21.2491 51.8472 21.3557 51.7082 21.4958 51.6094C21.6369 51.6094 21.6369 51.375 21.7545 51.3047C21.8721 51.2344 22.0838 51.1172 22.2484 51.1172ZM21.7545 52.7344C21.7545 52.7344 21.7545 52.8516 21.7545 52.9219C21.8401 53.1346 21.9592 53.3324 22.1073 53.5078C22.2484 53.6953 22.2954 53.7188 22.4601 53.5078C22.2954 53.5078 22.2954 53.1797 22.0602 53.2734C22.0602 53.2734 21.7545 52.875 21.7545 52.7578V52.7344Z" fill="url(#paint6_linear_193_914)"/>
<path d="M22.413 48.6094C22.4769 48.7221 22.532 48.8397 22.5777 48.9609C22.6807 49.2106 22.7595 49.4696 22.8129 49.7344C22.8129 49.7344 22.8129 49.7344 22.8129 49.8515C22.8129 49.8515 22.6953 49.8515 22.6953 49.7109C22.6273 49.671 22.5689 49.6167 22.5243 49.552C22.4796 49.4872 22.4496 49.4134 22.4366 49.3359C22.4366 49.3359 22.319 49.1719 22.319 49.0547H22.1779C22.1779 49.0547 22.319 49.0547 22.3425 48.9375C22.366 48.8203 22.2719 48.4453 22.413 48.6094Z" fill="url(#paint7_linear_193_914)"/>
<path d="M23.9182 48.8672C23.8688 49.0435 23.7892 49.21 23.683 49.3594L23.2597 49.7812H23.1186C23.1006 49.6726 23.1006 49.5618 23.1186 49.4531C23.2362 49.2891 23.3067 49.0781 23.4243 48.9141C23.4755 48.8475 23.5395 48.7917 23.6125 48.75H23.7536C23.7536 48.75 23.9417 48.7969 23.9182 48.8672Z" fill="url(#paint8_linear_193_914)"/>
<path d="M21.4017 50.4141C21.4226 50.3529 21.4599 50.2987 21.5097 50.2574C21.5595 50.216 21.6198 50.1892 21.6839 50.1797L22.0131 49.9922C22.2248 49.875 22.3659 49.9922 22.4365 50.1563L21.7074 50.5313C21.6681 50.5539 21.6234 50.5658 21.578 50.5658C21.5326 50.5658 21.488 50.5539 21.4487 50.5313C21.4487 50.5313 21.3781 50.4141 21.4017 50.4141Z" fill="url(#paint9_linear_193_914)"/>
<path d="M23.3067 51.3047C23.3067 51.3047 23.1656 51.3047 23.1186 51.3047C23.0715 51.3047 22.8363 50.7891 22.9069 50.4844C22.9775 50.1797 22.9069 50.4844 22.9069 50.3672H23.0245C23.0999 50.4402 23.1596 50.5277 23.2 50.6244C23.2404 50.7211 23.2607 50.8249 23.2597 50.9297L23.3067 51.3047Z" fill="url(#paint10_linear_193_914)"/>
<path d="M23.683 50.25C23.5184 50.25 23.4713 50.0859 23.4713 50.0156C23.4713 49.9453 23.6124 50.0156 23.683 50.0156C23.798 49.9811 23.9207 49.9811 24.0358 50.0156H24.1769C24.1769 50.0156 24.1769 50.1328 24.0593 50.1562L23.683 50.25Z" fill="url(#paint11_linear_193_914)"/>
<path d="M21.7074 22.6172L13.0762 41.0859L4.39793 22.5703H0L10.8655 45.7969V45.8203H10.889H12.9116L23.4008 23.3906L21.7074 22.6172Z" fill="black"/>
<defs>
<linearGradient id="paint0_linear_193_914" x1="79.2569" y1="31.1484" x2="154.727" y2="54.9926" gradientUnits="userSpaceOnUse">
<stop stop-color="#A01041"/>
<stop offset="1"/>
</linearGradient>
<linearGradient id="paint1_linear_193_914" x1="80.127" y1="28.4297" x2="155.597" y2="52.2975" gradientUnits="userSpaceOnUse">
<stop stop-color="#A01041"/>
<stop offset="1"/>
</linearGradient>
<linearGradient id="paint2_linear_193_914" x1="82.4319" y1="21.1406" x2="157.902" y2="44.9848" gradientUnits="userSpaceOnUse">
<stop stop-color="#A01041"/>
<stop offset="1"/>
</linearGradient>
<linearGradient id="paint3_linear_193_914" x1="82.8787" y1="19.6875" x2="158.349" y2="43.5317" gradientUnits="userSpaceOnUse">
<stop stop-color="#A01041"/>
<stop offset="1"/>
</linearGradient>
<linearGradient id="paint4_linear_193_914" x1="84.7836" y1="13.6641" x2="160.254" y2="37.5082" gradientUnits="userSpaceOnUse">
<stop stop-color="#A01041"/>
<stop offset="1"/>
</linearGradient>
<linearGradient id="paint5_linear_193_914" x1="24.5297" y1="-2.95313" x2="33.2222" y2="31.0456" gradientUnits="userSpaceOnUse">
<stop stop-color="#A01041"/>
<stop offset="1"/>
</linearGradient>
<linearGradient id="paint6_linear_193_914" x1="21.143" y1="52.5469" x2="22.8599" y2="52.5469" gradientUnits="userSpaceOnUse">
<stop stop-color="#A01041"/>
<stop offset="1"/>
</linearGradient>
<linearGradient id="paint7_linear_193_914" x1="21.8721" y1="49.1719" x2="22.8129" y2="49.1719" gradientUnits="userSpaceOnUse">
<stop stop-color="#A01041"/>
<stop offset="1"/>
</linearGradient>
<linearGradient id="paint8_linear_193_914" x1="23.1186" y1="49.2187" x2="23.9182" y2="49.2187" gradientUnits="userSpaceOnUse">
<stop stop-color="#A01041"/>
<stop offset="1"/>
</linearGradient>
<linearGradient id="paint9_linear_193_914" x1="21.3546" y1="50.2734" x2="22.4365" y2="50.2734" gradientUnits="userSpaceOnUse">
<stop stop-color="#A01041"/>
<stop offset="1"/>
</linearGradient>
<linearGradient id="paint10_linear_193_914" x1="22.8363" y1="50.8594" x2="23.2597" y2="50.8594" gradientUnits="userSpaceOnUse">
<stop stop-color="#A01041"/>
<stop offset="1"/>
</linearGradient>
<linearGradient id="paint11_linear_193_914" x1="23.4713" y1="50.0625" x2="24.1769" y2="50.0625" gradientUnits="userSpaceOnUse">
<stop stop-color="#A01041"/>
<stop offset="1"/>
</linearGradient>
</defs>
</svg>
