<?xml version="1.0" encoding="utf-8"?><svg viewBox="0 0 181 41" xmlns="http://www.w3.org/2000/svg" xmlns:xlink="http://www.w3.org/1999/xlink"><style>:root>svg{display:none}:root>svg:target{display:block}</style><svg fill="none" viewBox="0 0 181 41" id="Group_71" xmlns="http://www.w3.org/2000/svg"><g filter="url(#da)"><rect x="4" y="2" width="173" height="33" rx="16.5" fill="#fff"/><rect x="4.5" y="2.5" width="172" height="32" rx="16" stroke="url(#db)"/></g><path d="M55.833 12.164V23.8h-2.432v-9.636h-4.704V23.8h-2.432V12.164h9.568Zm6.24 11.806c-.883 0-1.646-.187-2.29-.562a3.849 3.849 0 0 1-1.483-1.58c-.348-.678-.522-1.464-.522-2.358 0-.901.174-1.689.522-2.363a3.804 3.804 0 0 1 1.483-1.58c.644-.378 1.407-.568 2.29-.568s1.644.19 2.284.568c.644.375 1.14.902 1.489 1.58.348.674.522 1.462.522 2.363 0 .894-.174 1.68-.522 2.358a3.838 3.838 0 0 1-1.489 1.58c-.64.375-1.401.562-2.284.562Zm.011-1.875c.402 0 .737-.113 1.006-.34.269-.232.472-.546.608-.944.14-.397.21-.85.21-1.358 0-.507-.07-.96-.21-1.358-.136-.397-.339-.712-.608-.943-.269-.23-.604-.346-1.006-.346-.405 0-.746.115-1.022.346-.273.231-.48.546-.62.943-.136.398-.204.85-.204 1.358 0 .508.068.96.204 1.358.14.398.347.712.62.944.276.227.617.34 1.022.34Zm5.177 4.262V21.88h.67c.193-.122.349-.315.466-.58.121-.265.22-.578.295-.938.08-.36.14-.748.182-1.164.046-.42.085-.845.12-1.273l.227-2.852h6.693v6.806h1.352v4.478H74.96V23.8h-5.335v2.557h-2.363Zm3.08-4.477h3.289v-4.944h-2.352l-.091.989a21.266 21.266 0 0 1-.279 2.375c-.12.648-.31 1.174-.568 1.58Zm8.336 5.193v-12h2.386v1.466h.108c.106-.235.26-.474.46-.716.205-.247.47-.451.796-.614.33-.167.738-.25 1.227-.25a3.28 3.28 0 0 1 1.761.5c.538.33.968.828 1.29 1.494.322.663.483 1.495.483 2.495 0 .973-.157 1.795-.472 2.466-.31.666-.734 1.172-1.272 1.517a3.267 3.267 0 0 1-1.796.511c-.47 0-.869-.078-1.198-.233a2.48 2.48 0 0 1-.802-.585 2.973 2.973 0 0 1-.477-.722h-.074v4.67h-2.42Zm2.37-7.637c0 .52.071.972.215 1.358.144.387.352.688.625.904.273.212.604.318.994.318.394 0 .728-.108 1-.324.273-.22.48-.523.62-.91.144-.39.215-.838.215-1.346 0-.503-.07-.947-.21-1.33-.14-.382-.346-.681-.619-.897-.273-.216-.608-.324-1.006-.324-.394 0-.727.104-1 .313-.269.208-.475.503-.619.886-.144.383-.216.833-.216 1.352Zm11.698 4.534c-.883 0-1.646-.187-2.29-.562a3.849 3.849 0 0 1-1.483-1.58c-.348-.678-.522-1.464-.522-2.358 0-.901.174-1.689.522-2.363a3.804 3.804 0 0 1 1.483-1.58c.644-.378 1.407-.568 2.29-.568.882 0 1.644.19 2.284.568.644.375 1.14.902 1.489 1.58.348.674.522 1.462.522 2.363 0 .894-.174 1.68-.522 2.358a3.838 3.838 0 0 1-1.489 1.58c-.64.375-1.401.562-2.284.562Zm.011-1.875c.402 0 .737-.113 1.006-.34.269-.232.472-.546.608-.944.14-.397.21-.85.21-1.358 0-.507-.07-.96-.21-1.358-.136-.397-.34-.712-.608-.943-.269-.23-.604-.346-1.006-.346-.405 0-.746.115-1.022.346-.273.231-.48.546-.62.943-.136.398-.204.85-.204 1.358 0 .508.068.96.204 1.358.14.398.347.712.62.944.276.227.617.34 1.022.34Zm13.114-10.227.739 1.58a2.49 2.49 0 0 1-.819.454 4.724 4.724 0 0 1-1.073.188c-.413.03-.917.05-1.512.062-.674.008-1.223.116-1.648.324a2.076 2.076 0 0 0-.965.983c-.22.443-.364 1.023-.432 1.739h.085a2.926 2.926 0 0 1 1.102-1.239c.477-.292 1.066-.437 1.767-.437.743 0 1.392.162 1.949.488.561.326.996.794 1.307 1.404.311.61.466 1.34.466 2.193 0 .886-.174 1.657-.523 2.312a3.69 3.69 0 0 1-1.471 1.517c-.637.356-1.394.534-2.273.534-.883 0-1.644-.185-2.284-.556-.637-.372-1.13-.919-1.478-1.642-.344-.724-.517-1.614-.517-2.67v-.717c0-2.102.41-3.66 1.228-4.676.818-1.015 2.02-1.53 3.608-1.545.431-.008.822-.01 1.17-.006.349.004.653-.013.915-.051.265-.038.485-.118.659-.239Zm-3.29 10.227c.371 0 .69-.096.955-.29.269-.192.475-.469.619-.829.148-.36.222-.79.222-1.29 0-.496-.074-.916-.222-1.261-.144-.349-.35-.614-.619-.796-.269-.181-.591-.272-.966-.272-.281 0-.532.05-.756.153a1.55 1.55 0 0 0-.574.455 2.178 2.178 0 0 0-.363.733 3.537 3.537 0 0 0-.125.988c0 .747.161 1.336.483 1.767.325.428.774.642 1.346.642Zm11.936-3.625v1.904h-4.557V18.47h4.557Zm-3.761-3.397V23.8h-2.313v-8.727h2.313Zm5.278 0V23.8h-2.295v-8.727h2.295Zm5.855 8.897c-.897 0-1.67-.181-2.318-.545a3.731 3.731 0 0 1-1.488-1.557c-.349-.674-.523-1.471-.523-2.392 0-.898.174-1.685.523-2.363a3.863 3.863 0 0 1 1.471-1.586c.637-.378 1.383-.568 2.239-.568.576 0 1.112.093 1.608.279.5.181.935.456 1.307.823.375.368.666.83.875 1.387.208.553.312 1.2.312 1.943v.665h-7.369v-1.5h5.091a1.85 1.85 0 0 0-.228-.927 1.622 1.622 0 0 0-.63-.63 1.798 1.798 0 0 0-.926-.233c-.368 0-.694.085-.978.256-.28.166-.5.392-.659.676-.159.28-.24.593-.244.937v1.426c0 .432.079.805.239 1.12.162.314.392.556.687.727.295.17.646.256 1.051.256.269 0 .515-.038.739-.114.223-.076.415-.19.574-.34.159-.152.28-.338.363-.558l2.239.148a3.063 3.063 0 0 1-.699 1.41c-.348.397-.799.707-1.352.93-.549.22-1.184.33-1.904.33Zm9.563 0c-.898 0-1.671-.181-2.318-.545a3.74 3.74 0 0 1-1.489-1.557c-.348-.674-.523-1.471-.523-2.392 0-.898.175-1.685.523-2.363a3.865 3.865 0 0 1 1.472-1.586c.636-.378 1.382-.568 2.238-.568.576 0 1.112.093 1.608.279.5.181.936.456 1.307.823.375.368.667.83.875 1.387.208.553.313 1.2.313 1.943v.665h-7.37v-1.5h5.091a1.86 1.86 0 0 0-.227-.927 1.632 1.632 0 0 0-.631-.63 1.798 1.798 0 0 0-.926-.233c-.367 0-.693.085-.977.256-.28.166-.5.392-.659.676-.159.28-.241.593-.245.937v1.426c0 .432.08.805.239 1.12.163.314.392.556.688.727.295.17.645.256 1.051.256.269 0 .515-.038.738-.114a1.53 1.53 0 0 0 .574-.34c.159-.152.28-.338.364-.558l2.238.148a3.052 3.052 0 0 1-.698 1.41c-.349.397-.8.707-1.353.93-.549.22-1.183.33-1.903.33Z" fill="url(#dc)"/><defs><linearGradient id="db" x1="-17.908" y1="-1.742" x2="172.84" y2="82.632" gradientUnits="userSpaceOnUse"><stop stop-color="#8930CB"/><stop offset="1" stop-color="#FDA1BA"/></linearGradient><linearGradient id="dc" x1="-7.068" y1="4.215" x2="147.034" y2="93.007" gradientUnits="userSpaceOnUse"><stop stop-color="#8930CB"/><stop offset="1" stop-color="#FDA1BA"/></linearGradient><filter id="da" x="0" y="0" width="181" height="41" filterUnits="userSpaceOnUse" color-interpolation-filters="sRGB"><feFlood flood-opacity="0" result="BackgroundImageFix"/><feColorMatrix in="SourceAlpha" values="0 0 0 0 0 0 0 0 0 0 0 0 0 0 0 0 0 0 127 0" result="hardAlpha"/><feOffset dy="2"/><feGaussianBlur stdDeviation="2"/><feComposite in2="hardAlpha" operator="out"/><feColorMatrix values="0 0 0 0 0 0 0 0 0 0 0 0 0 0 0 0 0 0 0.25 0"/><feBlend in2="BackgroundImageFix" result="effect1_dropShadow_193_1604"/><feBlend in="SourceGraphic" in2="effect1_dropShadow_193_1604" result="shape"/></filter></defs></svg><svg fill="none" viewBox="0 0 24 24" id="book" xmlns="http://www.w3.org/2000/svg"><path d="M2 3h6a4 4 0 0 1 4 4v14a3 3 0 0 0-3-3H2V3ZM22 3h-6a4 4 0 0 0-4 4v14a3 3 0 0 1 3-3h7V3Z" stroke="currentColor" stroke-width="2" stroke-linecap="round" stroke-linejoin="round"/></svg><svg fill="none" viewBox="0 0 24 24" id="box" xmlns="http://www.w3.org/2000/svg"><path d="m16.5 9.4-9-5.19M21 16V8a2 2 0 0 0-1-1.73l-7-4a2 2 0 0 0-2 0l-7 4A2 2 0 0 0 3 8v8a2 2 0 0 0 1 1.73l7 4a2 2 0 0 0 2 0l7-4A2 2 0 0 0 21 16Z" stroke="currentColor" stroke-width="2" stroke-linecap="round" stroke-linejoin="round"/><path d="M3.27 6.96 12 12.01l8.73-5.05M12 22.08V12" stroke="currentColor" stroke-width="2" stroke-linecap="round" stroke-linejoin="round"/></svg><svg fill="none" viewBox="0 0 24 24" id="delivery" xmlns="http://www.w3.org/2000/svg"><path d="M16 3H1v13h15V3ZM16 8h4l3 3v5h-7V8ZM5.5 21a2.5 2.5 0 1 0 0-5 2.5 2.5 0 0 0 0 5ZM18.5 21a2.5 2.5 0 1 0 0-5 2.5 2.5 0 0 0 0 5Z" stroke="currentColor" stroke-width="2" stroke-linecap="round" stroke-linejoin="round"/></svg><svg fill="none" viewBox="0 0 24 24" id="login" xmlns="http://www.w3.org/2000/svg"><path d="M19 5 5 19M6.5 9a2.5 2.5 0 1 0 0-5 2.5 2.5 0 0 0 0 5ZM17.5 20a2.5 2.5 0 1 0 0-5 2.5 2.5 0 0 0 0 5Z" stroke="currentColor" stroke-width="2" stroke-linecap="round" stroke-linejoin="round"/></svg><svg fill="none" viewBox="0 0 24 24" id="loyality" xmlns="http://www.w3.org/2000/svg"><path d="M12 22c5.523 0 10-4.477 10-10S17.523 2 12 2 2 6.477 2 12s4.477 10 10 10Z" stroke="currentColor" stroke-width="2" stroke-linecap="round" stroke-linejoin="round"/><path d="M8 14s1.5 2 4 2 4-2 4-2M9 9h.01M15 9h.01" stroke="currentColor" stroke-width="2" stroke-linecap="round" stroke-linejoin="round"/></svg><svg fill="none" viewBox="0 0 24 24" id="mail" xmlns="http://www.w3.org/2000/svg"><path d="M4 4h16c1.1 0 2 .9 2 2v12c0 1.1-.9 2-2 2H4c-1.1 0-2-.9-2-2V6c0-1.1.9-2 2-2Z" stroke="currentColor" stroke-width="2" stroke-linecap="round" stroke-linejoin="round"/><path d="m22 6-10 7L2 6" stroke="currentColor" stroke-width="2" stroke-linecap="round" stroke-linejoin="round"/></svg><svg fill="none" viewBox="0 0 24 24" id="medal" xmlns="http://www.w3.org/2000/svg"><path d="M12 15a7 7 0 1 0 0-14 7 7 0 0 0 0 14Z" stroke="currentColor" stroke-width="2" stroke-linecap="round" stroke-linejoin="round"/><path d="M8.21 13.89 7 23l5-3 5 3-1.21-9.12" stroke="currentColor" stroke-width="2" stroke-linecap="round" stroke-linejoin="round"/></svg><svg fill="none" viewBox="0 0 24 24" id="mens" xmlns="http://www.w3.org/2000/svg"><path d="M17 21v-2a4 4 0 0 0-4-4H5a4 4 0 0 0-4 4v2M9 11a4 4 0 1 0 0-8 4 4 0 0 0 0 8ZM23 21v-2a4 4 0 0 0-3-3.87M16 3.13a4 4 0 0 1 0 7.75" stroke="currentColor" stroke-width="2" stroke-linecap="round" stroke-linejoin="round"/></svg><svg fill="none" viewBox="0 0 24 24" id="menu" xmlns="http://www.w3.org/2000/svg"><path d="M21 10H3M21 6H3M21 14H3M21 18H3" stroke="currentColor" stroke-width="2" stroke-linecap="round" stroke-linejoin="round"/></svg><svg fill="none" viewBox="0 0 34 30" id="ok" xmlns="http://www.w3.org/2000/svg"><path d="m-.001 15.14 3.569-2.984 8.044 6.574C17.62 11.453 24.463 5.177 32.352.073l.216.516c.185.443.364.89.559 1.33.068.154.05.247-.071.364a74.122 74.122 0 0 0-4.722 4.994 96.487 96.487 0 0 0-6.247 8.065 94.279 94.279 0 0 0-4.47 7.042c-1.342 2.35-2.604 4.744-3.595 7.278-.027.07-.063.138-.108.237L-.001 15.14Z" fill="url(#ka)"/><defs><linearGradient id="ka" x1="0" y1="14.985" x2="33.169" y2="14.985" gradientUnits="userSpaceOnUse"><stop offset=".02" stop-color="#A5630F"/><stop offset=".15" stop-color="#DCB04F"/><stop offset=".38" stop-color="#FFFD66"/><stop offset=".68" stop-color="#C38D34"/><stop offset=".87" stop-color="#FF9A17"/><stop offset="1" stop-color="#824E0C"/></linearGradient></defs></svg></svg>