<svg width="54" height="85" viewBox="0 0 54 85" fill="none" xmlns="http://www.w3.org/2000/svg">
<path d="M53.9634 17.3024L53.5235 0.479501C53.5218 0.390419 53.4955 0.303564 53.4475 0.228679C53.3996 0.153794 53.3318 0.0938376 53.2519 0.0555316C53.1719 0.0172255 53.083 0.0020832 52.995 0.0118058C52.9069 0.0215283 52.8234 0.0557306 52.7536 0.110576L39.666 10.588L43.112 12.2851L33.8371 32.3914C33.7888 32.4875 33.7609 32.5926 33.7553 32.7001C33.7496 32.8076 33.7663 32.9152 33.8043 33.0158C33.8422 33.1165 33.9006 33.2081 33.9757 33.2848C34.0507 33.3615 34.1409 33.4216 34.2404 33.4613L40.0693 36.0806C40.2691 36.1696 40.4955 36.177 40.7006 36.1013C40.9058 36.0256 41.0737 35.8727 41.1691 35.6748L50.444 15.6054L53.9634 17.3024Z" fill="url(#paint0_linear_193_954)"/>
<path d="M45.2383 26.0829C45.1502 26.1683 45.0817 26.2719 45.0373 26.3865C44.993 26.5012 44.974 26.6242 44.9817 26.747C44.9817 26.9683 44.9817 27.079 44.6884 27.0421H44.4318C44.4898 27.2471 44.4898 27.4643 44.4318 27.6693C44.4318 27.9275 44.0652 28.112 44.1018 28.4809C44.1385 28.8498 44.1018 28.7023 43.8452 28.8498C43.5954 28.5397 43.3973 28.1909 43.2586 27.8169C43.0587 27.4586 42.9105 27.0735 42.8187 26.6732V27.0052C42.6806 27.0684 42.5306 27.1011 42.3788 27.1011C42.2271 27.1011 42.077 27.0684 41.9389 27.0052H40.9857C41.389 27.0052 41.2423 26.5625 41.389 26.3412C41.4839 26.2055 41.558 26.0563 41.609 25.8985C41.6023 25.8002 41.6023 25.7016 41.609 25.6033C41.609 25.382 41.6089 25.3082 41.9022 25.382H42.1222C42.1222 25.1237 42.1222 24.8655 42.1222 24.6072C42.0838 24.4741 42.0217 24.3491 41.9389 24.2383C41.7449 23.9682 41.6305 23.6485 41.609 23.316C41.609 23.0577 41.609 22.7995 41.609 22.5781C41.5872 22.4934 41.5872 22.4046 41.609 22.3199C41.609 22.0248 41.9022 21.7296 42.0122 21.4345C42.1222 21.1393 42.0122 20.9549 42.3055 20.7335C42.3055 21.4345 42.892 22.0248 42.7087 22.7626C42.5488 23.0002 42.4019 23.2466 42.2688 23.5004C42.2512 23.6475 42.2512 23.7961 42.2688 23.9432C42.1967 24.0243 42.1568 24.1294 42.1568 24.2383C42.1568 24.3472 42.1967 24.4523 42.2688 24.5334C42.2899 24.3003 42.2899 24.0656 42.2688 23.8325C42.2688 23.4267 42.5621 23.2053 42.7821 22.8733C42.9591 23.1908 43.1064 23.5243 43.222 23.8694C43.2423 24.2134 43.2423 24.5583 43.222 24.9024C43.2159 25.0253 43.2159 25.1484 43.222 25.2713C43.222 25.2713 43.222 25.4926 43.222 25.6033C43.2405 25.6564 43.2709 25.7046 43.3107 25.7441C43.3506 25.7836 43.3989 25.8134 43.452 25.8312C43.5051 25.849 43.5615 25.8544 43.6169 25.8468C43.6724 25.8393 43.7254 25.8191 43.7719 25.7878C43.8373 25.7449 43.9137 25.7221 43.9918 25.7221C44.0699 25.7221 44.1464 25.7449 44.2118 25.7878C44.2118 25.7878 44.4684 25.7878 44.5784 25.7878L44.945 25.6033C45.165 25.6033 45.2383 25.6033 45.2383 25.7878V25.382L46.7413 25.013C47.0713 25.013 47.2179 25.2344 47.0713 25.5295C47.0542 25.6519 47.0542 25.7761 47.0713 25.8985C47.0713 26.1567 46.8513 26.2305 46.668 26.3043C46.2544 26.4903 45.8249 26.6384 45.3849 26.747H45.0916C45.3483 26.5256 45.0916 26.046 45.6415 26.046C46.1914 26.046 45.4216 26.046 45.3116 26.046H45.6415V25.7509L45.2383 26.0829ZM43.2586 25.714L42.7087 26.4149C42.9654 26.4149 43.2586 26.0091 43.2586 25.714Z" fill="black"/>
<path d="M46.778 16.4171C46.998 16.4171 47.0713 16.4171 47.1813 16.4171L46.7413 16.8598C46.7413 16.8598 46.4481 16.8598 46.4481 17.155L47.1813 16.8967L47.6212 16.6016C47.8045 16.6016 47.9145 16.6016 48.0978 16.6016C48.2811 16.6016 48.5377 17.0812 48.9409 17.0443L48.611 17.4501C48.7916 17.2942 48.9882 17.1581 49.1976 17.0443H49.6008C49.6008 17.3025 49.9674 17.0443 50.0774 17.3025C50.1874 17.5608 50.5173 17.3025 50.8106 17.3025C50.769 17.4314 50.6929 17.5463 50.5906 17.6346C50.3899 17.7993 50.168 17.9358 49.9308 18.0404C49.8501 18.077 49.7626 18.096 49.6741 18.096C49.5856 18.096 49.4982 18.077 49.4175 18.0404C49.214 17.9308 49.018 17.8076 48.8309 17.6714L48.3544 17.4501L48.0978 18.151C48.0978 18.151 48.0978 18.151 47.8778 18.151C47.7984 17.987 47.6724 17.8504 47.5157 17.7585C47.3591 17.6665 47.1789 17.6234 46.998 17.6346C46.8647 17.6596 46.728 17.6596 46.5947 17.6346L46.0448 17.3025C45.9231 17.3188 45.7999 17.3188 45.6782 17.3025L44.7251 16.7491H44.4318L45.165 17.5608H44.945H44.7251C44.7251 17.5608 44.7251 17.5608 44.4684 17.7821C44.4057 17.8268 44.3338 17.8568 44.2581 17.8698C44.1823 17.8828 44.1046 17.8785 44.0307 17.8573C43.9569 17.8361 43.8886 17.7984 43.8311 17.7471C43.7736 17.6957 43.7284 17.6321 43.6986 17.5608C43.5153 17.2656 43.3686 16.8967 43.1853 16.6016C43.0348 16.4617 42.8611 16.3493 42.6721 16.2695C42.6721 16.2695 42.3788 16.2695 42.2689 16.2695C42.1589 16.2695 42.2689 16.0482 42.2689 15.9375C42.2689 15.8268 42.2688 15.9375 42.4888 15.9375C42.4888 15.9375 42.4888 15.9375 42.4888 15.6793C42.4888 15.421 42.4888 15.421 42.4888 15.3103H43.002C43.1883 15.4787 43.4163 15.5934 43.6619 15.6424C43.8495 15.7403 44.0223 15.8645 44.1752 16.0113L44.9083 16.2326L45.1283 16.454L45.8982 16.8229L46.778 16.4171Z" fill="black"/>
<path d="M39.446 34.0885L39.886 33.7196L40.3625 33.24H40.8758L41.5723 33.5352L42.1589 33.7934C42.1589 33.7934 42.5621 33.7934 42.7821 33.7934C43.0021 33.7934 43.0387 33.7934 42.7821 34.1254L43.112 33.2031H43.332C43.332 33.2031 43.5886 33.8672 43.332 34.1992C43.332 34.1992 43.332 34.4206 43.0021 34.3837L42.0122 34.1254H41.499H41.2424H41.6823H41.389C41.389 33.9041 41.8289 34.1254 41.8289 33.8303C41.8289 33.5352 41.389 33.8303 41.2424 34.1254C41.0957 34.4206 41.2424 34.4206 40.9124 34.4575C40.5825 34.4944 40.5825 34.4575 40.4359 34.4575L39.8126 34.1992L39.446 34.0885Z" fill="black"/>
<path d="M42.8554 10.2561L43.1487 10.4774L44.3218 11.326L45.0917 11.9162H45.4216L46.7047 12.5065C47.2179 12.7279 47.7312 12.9123 48.2077 13.1706C48.5328 13.3555 48.877 13.504 49.2342 13.6133L50.5906 14.0191C50.9007 14.1315 51.2196 14.2179 51.5438 14.2773C51.9104 14.2773 52.277 14.4987 52.6436 14.6094H52.8636C52.8636 14.9045 52.8635 14.9414 52.4969 14.9045L50.9939 14.5356H50.3707L49.3809 14.1667H48.941L48.0978 13.9453H47.6945L46.5947 13.4288C46.3014 13.0968 45.8249 13.0599 45.4949 12.8385L44.7984 12.3958L43.9552 11.7687L42.8921 10.8095L42.8554 10.2561Z" fill="black"/>
<path d="M39.1527 33.9041L38.1629 33.6089C38.1629 33.6089 38.1629 33.6089 37.943 33.3876L37.0998 33.0924H36.7332C36.6861 33.0781 36.6423 33.0544 36.6046 33.0227C36.5668 32.991 36.5357 32.952 36.5132 32.908C36.4928 32.8356 36.4928 32.759 36.5132 32.6866C36.6796 32.6141 36.8263 32.5026 36.9411 32.3614C37.0559 32.2202 37.1354 32.0534 37.1731 31.875C37.4664 31.875 37.7597 31.875 37.9796 32.1332C38.1996 32.3915 38.5662 32.1332 38.6029 32.4653L39.2261 32.6497C39.4075 32.7133 39.5799 32.8001 39.7393 32.908C39.7393 32.908 39.7393 32.908 39.7393 33.0924C39.5644 33.3775 39.3683 33.6488 39.1527 33.9041ZM38.7128 32.7973C38.3096 32.7973 38.2729 32.7973 38.2729 33.0924H38.5295L38.7128 32.7973Z" fill="black"/>
<path d="M38.4928 25.2713V25.6402H38.6762C38.6762 25.6402 38.6762 25.6402 38.9694 25.6402H39.8859V25.8984L39.5927 26.3043L39.2994 26.5994C39.1843 26.7456 39.0294 26.8548 38.8536 26.9138C38.6778 26.9728 38.4888 26.9789 38.3096 26.9314H37.943H37.723L37.0998 26.1198C37.0571 26.0273 37.035 25.9266 37.035 25.8247C37.035 25.7227 37.0571 25.622 37.0998 25.5295C37.0998 25.3451 37.0998 25.1606 37.3931 25.013L38.4928 25.2713Z" fill="black"/>
<path d="M45.3116 19.6267H45.6049L46.0081 19.184V19.4792L46.778 19.1471C46.8687 19.0932 46.9444 19.0171 46.9979 18.9258C47.2179 19.1471 47.4012 19.3685 47.6212 19.553L48.0244 19.8112V20.1432H47.5845C47.4615 20.2627 47.2972 20.3295 47.1263 20.3295C46.9553 20.3295 46.791 20.2627 46.668 20.1432L46.9979 20.4384V20.6966H46.778C46.5782 20.5569 46.3939 20.3962 46.2281 20.217L45.8982 19.9588C45.7169 19.8243 45.5199 19.7128 45.3116 19.6267Z" fill="black"/>
<path d="M44.0285 17.6346H44.7983C44.8638 17.6774 44.9402 17.7002 45.0183 17.7002C45.0964 17.7002 45.1728 17.6774 45.2383 17.6346C45.4582 17.6346 45.6782 17.8928 45.6782 18.151H46.0448C46.1209 18.2462 46.2069 18.3327 46.3014 18.4093V18.6306H46.0814C46.0814 18.9627 46.0815 18.6306 45.7515 18.852C45.4216 19.0734 45.3483 18.852 45.2383 18.852C45.1283 18.852 44.725 18.852 44.6151 18.852L43.9185 17.7821C43.9517 17.7304 43.9885 17.6811 44.0285 17.6346Z" fill="black"/>
<path d="M41.7189 18.9627C41.2351 19.2431 40.8506 19.6688 40.6191 20.1801C40.5903 19.9968 40.5903 19.81 40.6191 19.6267C40.5831 19.234 40.5831 18.8389 40.6191 18.4462C40.6152 18.1686 40.665 17.8929 40.7658 17.6345C40.8412 17.4389 40.9396 17.2531 41.0591 17.0812C41.2006 16.9661 41.3622 16.8785 41.5356 16.8229C41.5605 16.9197 41.5605 17.0213 41.5356 17.118C41.453 17.3339 41.355 17.5436 41.2423 17.7452V18.0772C41.2423 18.0772 41.2423 18.0772 41.2423 18.2986L41.7189 18.9627Z" fill="black"/>
<path d="M46.8147 21.3238C46.8147 21.1024 47.108 21.0286 47.2546 21.1024C47.4087 20.9767 47.582 20.8771 47.7679 20.8073C47.7679 20.8073 48.0611 20.8073 48.1345 20.549C48.1551 20.5255 48.1805 20.5066 48.2089 20.4937C48.2374 20.4808 48.2682 20.4741 48.2994 20.4741C48.3306 20.4741 48.3615 20.4808 48.3899 20.4937C48.4184 20.5066 48.4437 20.5255 48.4644 20.549L49.3076 20.9548C49.3076 21.25 48.8676 21.4713 49.0143 21.8772C48.6477 21.8772 48.7577 21.8772 48.6477 22.1723C48.6135 22.2181 48.5693 22.2553 48.5184 22.2809C48.4675 22.3065 48.4113 22.3199 48.3544 22.3199C48.2975 22.3199 48.2414 22.3065 48.1904 22.2809C48.1395 22.2553 48.0953 22.2181 48.0611 22.1723C47.8045 22.1723 47.6579 21.8772 47.4012 21.8403C47.1446 21.8034 47.1813 21.8403 47.108 21.8403C47.0787 21.637 46.9739 21.4524 46.8147 21.3238Z" fill="black"/>
<path d="M45.9715 7.48914C46.3014 7.48914 46.4481 7.48913 46.6314 7.74738L47.5479 8.26388L48.2078 8.55901L48.6477 8.81726L49.1976 9.03862L50.2241 9.48132L50.8839 9.77646C51.1406 9.77646 51.3605 9.77646 51.6171 9.77646C51.9706 9.76025 52.3193 9.86421 52.607 10.0716C52.607 10.0716 52.607 10.0716 52.607 10.293L52.0571 10.2561H50.7006H50.1141C50.1141 10.2561 49.6375 10.2561 49.4175 10.0347C49.1976 9.81335 49.2342 10.0347 49.1242 10.0347L47.8412 9.29686L46.668 8.55901C46.4856 8.17202 46.2512 7.81204 45.9715 7.48914Z" fill="black"/>
<path d="M41.5723 21.3238C41.279 21.3238 41.5723 21.6927 41.5723 21.8403C41.5723 21.9878 41.5723 22.2092 41.5723 22.4306C41.5723 22.6519 41.2424 22.4306 41.279 22.0616C41.246 21.8787 41.246 21.6912 41.279 21.5082C40.9491 21.5082 40.8024 21.5082 40.7291 21.1762C40.6558 20.8442 40.7291 20.8073 40.7291 20.6597C40.797 20.4493 40.8959 20.2503 41.0224 20.0694C41.166 19.8821 41.3394 19.7201 41.5356 19.5898C41.5356 19.5898 41.7556 19.5898 41.7556 19.9588C41.7556 20.3277 41.7556 20.1801 41.7556 20.3277C41.7377 20.5117 41.7377 20.6971 41.7556 20.8811L41.4257 21.8403L41.5723 21.3238Z" fill="black"/>
<path d="M40.4359 27.1159C39.9226 27.1159 39.5193 27.1159 39.0061 26.8207L39.556 26.3043C39.6628 26.2154 39.761 26.1166 39.8493 26.0091L40.0326 25.5664C40.0326 25.5664 40.0326 25.5664 40.2892 25.5664C40.3984 25.585 40.5099 25.585 40.6191 25.5664H41.3157L40.4359 27.1159Z" fill="black"/>
<path d="M34.8635 31.7274L35.5967 31.4692C35.5967 31.4692 35.5967 31.2847 35.8167 31.4692H36.2566L36.7699 31.7643C36.7699 31.7643 36.7699 31.7643 36.7699 31.9857H36.5499V32.2439C36.5499 32.2439 36.1833 31.9488 36.22 32.2439H35.9633C35.9633 32.2439 35.7067 32.2439 35.5601 32.2439L34.7902 31.7274C34.7902 31.7274 34.7902 31.7274 34.7902 31.5061L34.8635 31.7274Z" fill="black"/>
<path d="M35.8534 29.9935C35.8534 30.3993 35.5968 30.7313 35.8534 31.1003L34.7536 31.6168C34.6462 31.3918 34.5603 31.1571 34.4969 30.9158C34.5252 30.7603 34.6023 30.6181 34.7169 30.51L35.2668 30.0673C35.2668 30.0673 35.4868 29.8828 35.6334 30.0673L35.8534 29.9935Z" fill="black"/>
<path d="M44.6884 29.5139V29.3294C44.4684 29.5877 44.6884 29.9566 44.3218 30.1042C44.1864 29.958 44.0889 29.7807 44.0377 29.5876C43.9866 29.3946 43.9834 29.1919 44.0285 28.9974C44.0285 28.776 44.2851 28.6285 44.2851 28.3333C44.2851 28.0382 44.5418 27.9275 44.6884 27.743C44.7993 27.9234 44.8741 28.124 44.9083 28.3333C44.9432 28.5409 44.9432 28.7529 44.9083 28.9605C44.4318 29.1081 44.7251 29.3294 44.6884 29.5139Z" fill="black"/>
<path d="M51.7637 6.1979C51.7637 6.01344 51.4704 6.1979 51.2871 6.1979C51.0088 6.1455 50.7379 6.05876 50.4806 5.93966L49.6008 5.49695L48.9409 5.20181L49.6374 5.53384L50.5539 5.93966L51.6537 6.27169H52.1303H52.7902C52.7992 6.33284 52.7992 6.395 52.7902 6.45615C52.7902 6.45615 52.7902 6.45615 52.5336 6.45615L51.7637 6.1979Z" fill="black"/>
<path d="M45.0917 28.8867L45.3116 29.4032C45.3798 29.514 45.4159 29.6418 45.4159 29.7721C45.4159 29.9025 45.3798 30.0302 45.3116 30.1411C45.3116 30.1411 45.3116 30.51 45.055 30.6576C44.7984 30.8051 44.8717 30.6576 44.7984 30.6576C44.7984 30.6576 44.7984 29.9197 45.2017 29.6246C45.2082 29.374 45.171 29.1243 45.0917 28.8867Z" fill="black"/>
<path d="M35.5968 78.9865C35.514 79.0177 35.4229 79.0177 35.3401 78.9865C35.255 78.8972 35.2075 78.7783 35.2075 78.6545C35.2075 78.5308 35.255 78.4118 35.3401 78.3225C35.7434 77.5477 35.8534 76.9575 35.6334 76.5517C35.4135 76.1458 33.1772 75.4818 31.3809 75.2604C29.5846 75.0391 27.0917 74.8177 26.5051 73.4527C25.9186 72.0877 26.5051 71.5343 27.4949 70.1324C28.4847 68.7305 28.5947 68.0664 28.5581 67.9926C28.5214 67.9188 27.8982 67.7344 27.4949 67.6975C27.0939 67.7047 26.6966 67.6185 26.3342 67.4458C25.9717 67.273 25.6538 67.0182 25.4053 66.7014C25.2715 66.2787 25.2317 65.8315 25.2887 65.3916C25.3457 64.9517 25.4982 64.5298 25.7353 64.1558C28.1548 59.1754 37.7231 38.036 37.7964 37.8147C37.8273 37.7538 37.87 37.6997 37.9219 37.6556C37.9738 37.6114 38.0339 37.5781 38.0987 37.5575C38.1635 37.5369 38.2317 37.5295 38.2993 37.5356C38.367 37.5418 38.4328 37.5614 38.4929 37.5933C38.5562 37.6157 38.6137 37.6523 38.6608 37.7005C38.7079 37.7486 38.7434 37.807 38.7647 37.8711C38.7859 37.9352 38.7922 38.0033 38.7833 38.0703C38.7743 38.1372 38.7502 38.2012 38.7129 38.2574C38.7129 38.4787 29.0713 59.6181 26.6518 64.5985C26.1019 65.5946 26.1019 66.0004 26.1019 66.148C26.1019 66.2956 26.8717 66.5169 27.4216 66.5907C27.9715 66.6645 28.9613 66.8121 29.2546 67.513C29.5479 68.214 29.2546 69.1363 28.0815 70.6858C26.9084 72.2352 26.9817 72.5304 27.2017 72.9731C27.4216 73.4158 29.5112 74.0061 31.2709 74.1905C33.0306 74.375 35.6334 74.6701 36.33 75.9983C36.5025 76.4455 36.5626 76.9287 36.5051 77.4049C36.4475 77.8811 36.274 78.3357 36 78.7283C35.9647 78.8059 35.9078 78.8715 35.8363 78.9173C35.7647 78.9632 35.6816 78.9872 35.5968 78.9865Z" fill="#1D1D1B"/>
<path d="M34.6802 80.3516C34.6802 80.6836 34.3137 80.9049 34.2403 81.237C34.2201 81.3219 34.2201 81.4103 34.2403 81.4952C34.2403 81.4952 34.2403 81.6797 34.2403 81.7904C34.2403 81.901 34.2403 82.0855 34.2403 82.2331C34.2403 82.3806 34.6803 82.6758 34.9002 82.8971C35.091 83.023 35.25 83.1919 35.3646 83.3904C35.4792 83.589 35.5461 83.8117 35.5601 84.0408C35.5969 84.1357 35.5969 84.241 35.5601 84.3359C35.4287 84.5755 35.2081 84.7527 34.947 84.8288C34.6858 84.9049 34.4053 84.8736 34.167 84.7418C33.9491 84.6566 33.7534 84.5227 33.5946 84.3501C33.4358 84.1775 33.3181 83.9708 33.2505 83.7457C33.1479 83.4308 33.0623 83.1106 32.9939 82.7865C32.9939 82.7865 32.9939 82.5282 32.9939 82.4175C32.9939 82.3069 32.9939 81.9748 32.9939 81.7535C33.0261 81.6167 33.0848 81.4877 33.1666 81.3737C33.2483 81.2598 33.3516 81.1632 33.4705 81.0894C33.6538 81.0894 33.6905 80.7205 33.8738 80.6098C34.0571 80.4991 34.4236 80.3516 34.6802 80.3516ZM33.9104 82.8602C33.8773 82.9092 33.8596 82.967 33.8596 83.0263C33.8596 83.0855 33.8773 83.1433 33.9104 83.1923C34.0708 83.5209 34.2676 83.8303 34.497 84.1146C34.7169 84.4097 34.7902 84.4097 35.0469 84.1146C34.7902 84.1146 34.7536 83.5981 34.387 83.7457C34.387 83.7457 33.8737 83.2292 33.9104 83.0078V82.8602Z" fill="url(#paint1_linear_193_954)"/>
<path d="M34.9002 76.6623L35.1935 77.2157C35.359 77.617 35.47 78.0389 35.5234 78.4701C35.5427 78.4364 35.5529 78.3982 35.5529 78.3594C35.5529 78.3205 35.5427 78.2824 35.5234 78.2487C35.4185 78.1938 35.3275 78.1154 35.2576 78.0194C35.1877 77.9234 35.1406 77.8125 35.1202 77.6953C35.0253 77.5596 34.9511 77.4104 34.9002 77.2526C34.9002 77.2526 35.1202 77.2526 35.1568 77.2526C35.1935 77.2526 34.7169 76.2565 34.9002 76.6623Z" fill="url(#paint2_linear_193_954)"/>
<path d="M37.0998 76.9574C37.0505 77.2266 36.9374 77.4797 36.7699 77.6953L36.11 78.3594H35.89C35.8533 78.1892 35.8533 78.013 35.89 77.8429C35.89 77.5477 36.1833 77.2526 36.3666 76.9574C36.4575 76.8542 36.5711 76.7737 36.6984 76.7224C36.8257 76.6712 36.9632 76.6506 37.0998 76.6623C37.0998 76.6623 37.3198 76.8468 37.0998 76.9574Z" fill="url(#paint3_linear_193_954)"/>
<path d="M33.4338 79.3555C33.4338 79.1341 33.6905 79.0603 33.8371 78.9865C34.03 78.923 34.2147 78.8363 34.387 78.7283C34.7169 78.5069 34.9369 78.7283 35.0102 78.9496L33.8738 79.503C33.816 79.5479 33.7451 79.5722 33.6721 79.5722C33.5992 79.5722 33.5283 79.5479 33.4705 79.503C33.4705 79.503 33.4338 79.4661 33.4338 79.3555Z" fill="url(#paint4_linear_193_954)"/>
<path d="M37.0998 79.0972C36.8432 79.0972 36.7699 78.8759 36.7699 78.7283C36.7699 78.5807 36.7699 78.7283 37.0998 78.7283C37.2813 78.6915 37.4682 78.6915 37.6497 78.7283C37.6497 78.7283 37.833 78.7283 37.8697 78.9128C37.9063 79.0972 37.8697 78.9128 37.8697 79.1341L37.0998 79.0972Z" fill="url(#paint5_linear_193_954)"/>
<path d="M33.8371 35.6011L20.3829 64.6723L6.8554 35.5273H0L16.9369 72.0877V72.1246H16.9735H20.1263L36.4766 36.8186L33.8371 35.6011Z" fill="black"/>
<path d="M34.5336 59.8394C34.5613 59.2451 34.4457 58.6529 34.1967 58.1133C33.9478 57.5737 33.5728 57.1027 33.1039 56.7404C31.5268 55.7466 29.8085 55.0002 28.0081 54.5269C25.991 53.9056 24.029 53.1159 22.1426 52.1658C20.4311 51.4434 18.9654 50.2356 17.924 48.6898C16.8825 47.1439 16.3103 45.3266 16.277 43.4592C16.2478 41.659 16.8011 39.898 17.8534 38.4418C19.04 36.8976 20.6251 35.7108 22.4359 35.0108C24.5477 34.1737 26.8018 33.7601 29.0713 33.7934C31.3285 33.7513 33.5678 34.2045 35.6334 35.1215C37.4458 35.9093 39.0063 37.1861 40.1426 38.8108C41.2007 40.4714 41.7491 42.409 41.719 44.3815H34.5703C34.6048 43.6932 34.488 43.0056 34.2282 42.368C33.9684 41.7303 33.572 41.1581 33.0672 40.6923C31.8864 39.7426 30.3966 39.2692 28.888 39.3641C27.4476 39.2727 26.0173 39.6617 24.8188 40.4709C24.3751 40.8146 24.0156 41.256 23.7678 41.7612C23.5199 42.2664 23.3904 42.822 23.389 43.3854C23.3988 43.966 23.5596 44.5338 23.8555 45.0322C24.1514 45.5307 24.572 45.9423 25.0754 46.2261C26.6252 47.1793 28.3047 47.9001 30.0611 48.3659C33.3275 49.2165 36.3523 50.8206 38.8961 53.0512C39.7937 53.9238 40.5015 54.9745 40.9748 56.1366C41.448 57.2987 41.6765 58.547 41.6456 59.8025C41.6957 61.1646 41.4147 62.5183 40.8269 63.7463C40.2392 64.9743 39.3625 66.0393 38.2729 66.849C35.5983 68.7034 32.3876 69.6117 29.1446 69.4314C26.6227 69.4867 24.1195 68.9829 21.8126 67.9557C19.8389 67.1119 18.1468 65.7163 16.9369 63.9345C15.7743 62.2542 15.1361 60.2633 15.1039 58.2161H22.4359C22.4359 62.0529 24.7088 63.9713 29.2546 63.9713C30.6481 64.0405 32.0293 63.6801 33.2139 62.9384C33.6831 62.5823 34.0516 62.109 34.2831 61.5655C34.5146 61.0219 34.601 60.4269 34.5336 59.8394Z" fill="url(#paint6_linear_193_954)"/>
<defs>
<linearGradient id="paint0_linear_193_954" x1="38.2363" y1="-4.64854" x2="52.0364" y2="48.8034" gradientUnits="userSpaceOnUse">
<stop stop-color="#A01041"/>
<stop offset="1"/>
</linearGradient>
<linearGradient id="paint1_linear_193_954" x1="32.9206" y1="82.7496" x2="35.5968" y2="82.7496" gradientUnits="userSpaceOnUse">
<stop stop-color="#A01041"/>
<stop offset="1"/>
</linearGradient>
<linearGradient id="paint2_linear_193_954" x1="34.0937" y1="77.4371" x2="35.5601" y2="77.4371" gradientUnits="userSpaceOnUse">
<stop stop-color="#A01041"/>
<stop offset="1"/>
</linearGradient>
<linearGradient id="paint3_linear_193_954" x1="36.0367" y1="77.5108" x2="37.2831" y2="77.5108" gradientUnits="userSpaceOnUse">
<stop stop-color="#A01041"/>
<stop offset="1"/>
</linearGradient>
<linearGradient id="paint4_linear_193_954" x1="33.2872" y1="79.171" x2="34.9736" y2="79.171" gradientUnits="userSpaceOnUse">
<stop stop-color="#A01041"/>
<stop offset="1"/>
</linearGradient>
<linearGradient id="paint5_linear_193_954" x1="36.5866" y1="78.8021" x2="37.6864" y2="78.8021" gradientUnits="userSpaceOnUse">
<stop stop-color="#A01041"/>
<stop offset="1"/>
</linearGradient>
<linearGradient id="paint6_linear_193_954" x1="10.8513" y1="45.8941" x2="128.736" y2="82.7655" gradientUnits="userSpaceOnUse">
<stop stop-color="#A01041"/>
<stop offset="1"/>
</linearGradient>
</defs>
</svg>
